<?xml version="1.0" encoding="utf-8"?>
<!-- Generator: Adobe Illustrator 23.1.1, SVG Export Plug-In . SVG Version: 6.00 Build 0)  -->
<svg version="1.1" id="Layer_1" xmlns="http://www.w3.org/2000/svg" xmlns:xlink="http://www.w3.org/1999/xlink" x="0px" y="0px"
	 viewBox="0 0 288 288" style="enable-background:new 0 0 288 288;" xml:space="preserve">
<style type="text/css">
	.st0{fill:none;stroke:#000000;stroke-width:17;stroke-linecap:round;stroke-miterlimit:10;}
</style>
<circle cx="144" cy="107" r="30.1"/>
<path d="M144,148.7c-22.8,0-41.3,12.1-41.3,50.6c0,38.5,18.5,88.7,41.3,88.7c22.8,0,41.3-50.2,41.3-88.7
	C185.3,160.8,166.8,148.7,144,148.7z"/>
<path class="st0" d="M102.8,155.5"/>
<path class="st0" d="M90.8,190.5"/>
<path class="st0" d="M197.2,190.5c27.5-17.6,45.8-48.4,45.8-83.5c0-54.6-44.3-99-99-99s-99,44.3-99,99c0,35.1,18.3,65.9,45.8,83.5"
	/>
<path class="st0" d="M197.2,190.5"/>
<path class="st0" d="M185.2,155.5"/>
<path class="st0" d="M102.8,155.5c-13.7-11.7-22.5-29.1-22.5-48.5c0-35.1,28.5-63.6,63.6-63.6s63.6,28.5,63.6,63.6
	c0,19.4-8.7,36.8-22.5,48.5"/>
</svg>
