<?xml version="1.0" encoding="utf-8"?>
<!-- Generator: Adobe Illustrator 23.1.1, SVG Export Plug-In . SVG Version: 6.00 Build 0)  -->
<svg version="1.1" id="Layer_1" xmlns="http://www.w3.org/2000/svg" xmlns:xlink="http://www.w3.org/1999/xlink" x="0px" y="0px"
	 viewBox="0 0 194.2 288" style="enable-background:new 0 0 194.2 288;" xml:space="preserve">
<style type="text/css">
	.st0{fill:#020202;}
	.st1{fill:none;stroke:#FFFFFF;stroke-width:2;stroke-miterlimit:10;}
	.st2{fill:#010101;}
	.st3{fill-rule:evenodd;clip-rule:evenodd;fill:#010101;}
</style>
<g>
	<path d="M10.6,154.9l54.3,35.9c3.9,2.2,8.6,2.2,12.5-0.1c3.8-2.2,6.2-6.4,6.2-10.8v-23.4h95.9c6.9,0,12.5-5.6,12.5-12.5
		s-5.6-12.5-12.5-12.5H83.6v-23.4c0-4.5-2.4-8.6-6.2-10.8c-1.9-1.1-4.1-1.7-6.3-1.7c-2.1,0-4.3,0.5-6.2,1.6l-54.3,36
		c-3.9,2.2-6.3,6.4-6.3,10.9S6.7,152.7,10.6,154.9z"/>
</g>
</svg>
