<?xml version="1.0" encoding="utf-8"?>
<!-- Generator: Adobe Illustrator 23.1.1, SVG Export Plug-In . SVG Version: 6.00 Build 0)  -->
<svg version="1.1" id="Layer_1" xmlns="http://www.w3.org/2000/svg" xmlns:xlink="http://www.w3.org/1999/xlink" x="0px" y="0px"
	 viewBox="0 0 101.3 288" style="enable-background:new 0 0 101.3 288;" xml:space="preserve">
<style type="text/css">
	.st0{fill:#020202;}
	.st1{fill:none;stroke:#FFFFFF;stroke-width:2;stroke-miterlimit:10;}
	.st2{fill:#010101;}
	.st3{fill-rule:evenodd;clip-rule:evenodd;fill:#010101;}
</style>
<g>
	<path d="M40,56.5L4.1,110.8c-2.2,3.9-2.2,8.6,0.1,12.5c2.2,3.8,6.4,6.2,10.8,6.2h23.4v95.9c0,6.9,5.6,12.5,12.5,12.5
		s12.5-5.6,12.5-12.5v-95.9h23.4c4.5,0,8.6-2.4,10.8-6.2c1.1-1.9,1.7-4.1,1.7-6.3c0-2.1-0.5-4.3-1.6-6.2l-36-54.3
		c-2.2-3.9-6.4-6.3-10.9-6.3S42.3,52.6,40,56.5z"/>
</g>
</svg>
