<svg xmlns="http://www.w3.org/2000/svg" xmlns:xlink="http://www.w3.org/1999/xlink" id="Layer_1" x="0" y="0" enable-background="new 0 0 194.2 288" version="1.1" viewBox="0 0 194.2 288" xml:space="preserve"><style type="text/css"/><g><path d="M10.6,154.9l54.3,35.9c3.9,2.2,8.6,2.2,12.5-0.1c3.8-2.2,6.2-6.4,6.2-10.8v-23.4h95.9c6.9,0,12.5-5.6,12.5-12.5 s-5.6-12.5-12.5-12.5H83.6v-23.4c0-4.5-2.4-8.6-6.2-10.8c-1.9-1.1-4.1-1.7-6.3-1.7c-2.1,0-4.3,0.5-6.2,1.6l-54.3,36 c-3.9,2.2-6.3,6.4-6.3,10.9S6.7,152.7,10.6,154.9z"/></g></svg>