<?xml version="1.0" encoding="utf-8"?>
<!-- Generator: Adobe Illustrator 23.1.1, SVG Export Plug-In . SVG Version: 6.00 Build 0)  -->
<svg version="1.1" id="Layer_1" xmlns="http://www.w3.org/2000/svg" xmlns:xlink="http://www.w3.org/1999/xlink" x="0px" y="0px"
	 viewBox="0 0 193.8 288" style="enable-background:new 0 0 193.8 288;" xml:space="preserve">
<style type="text/css">
	.st0{fill:#020202;}
	.st1{fill:none;stroke:#FFFFFF;stroke-width:2;stroke-miterlimit:10;}
	.st2{fill:#010101;}
	.st3{fill-rule:evenodd;clip-rule:evenodd;fill:#010101;}
</style>
<g>
	<path d="M183.7,133.1l-54.3-35.9c-3.9-2.2-8.6-2.2-12.5,0.1c-3.8,2.2-6.2,6.4-6.2,10.8v23.4H14.8c-6.9,0-12.5,5.6-12.5,12.5
		s5.6,12.5,12.5,12.5h95.9v23.4c0,4.5,2.4,8.6,6.2,10.8c1.9,1.1,4.1,1.7,6.3,1.7c2.1,0,4.3-0.5,6.2-1.6l54.3-36
		c3.9-2.2,6.3-6.4,6.3-10.9S187.6,135.3,183.7,133.1z"/>
</g>
</svg>
