<?xml version="1.0" encoding="utf-8"?>
<!-- Generator: Adobe Illustrator 23.1.1, SVG Export Plug-In . SVG Version: 6.00 Build 0)  -->
<svg version="1.1" id="Layer_1" xmlns="http://www.w3.org/2000/svg" xmlns:xlink="http://www.w3.org/1999/xlink" x="0px" y="0px"
	 viewBox="0 0 161.5 288" style="enable-background:new 0 0 161.5 288;" xml:space="preserve">
<style type="text/css">
	.st0{fill:#020202;}
	.st1{fill:none;stroke:#FFFFFF;stroke-width:2;stroke-miterlimit:10;}
	.st2{fill:#010101;}
	.st3{fill-rule:evenodd;clip-rule:evenodd;fill:#010101;}
</style>
<g>
	<path d="M89,233.5c0.3-0.3,0.7-0.6,1-0.9l63.3-63.3c4.9-4.9,4.9-12.8,0-17.7c-4.9-4.9-12.8-4.9-17.7,0l-42.3,42.3v-130
		c0-6.9-5.6-12.5-12.5-12.5S68.3,57,68.3,63.9v130L26,151.6c-4.9-4.9-12.8-4.9-17.7,0c-2.4,2.4-3.7,5.6-3.7,8.8
		c0,3.2,1.2,6.4,3.7,8.8l63.6,63.6C76.6,237.6,84,237.8,89,233.5z"/>
</g>
</svg>
