<svg xmlns="http://www.w3.org/2000/svg" xmlns:xlink="http://www.w3.org/1999/xlink" id="Layer_1" x="0" y="0" enable-background="new 0 0 161.5 288" version="1.1" viewBox="0 0 161.5 288" xml:space="preserve"><style type="text/css"/><g><path d="M89,233.5c0.3-0.3,0.7-0.6,1-0.9l63.3-63.3c4.9-4.9,4.9-12.8,0-17.7c-4.9-4.9-12.8-4.9-17.7,0l-42.3,42.3v-130 c0-6.9-5.6-12.5-12.5-12.5S68.3,57,68.3,63.9v130L26,151.6c-4.9-4.9-12.8-4.9-17.7,0c-2.4,2.4-3.7,5.6-3.7,8.8 c0,3.2,1.2,6.4,3.7,8.8l63.6,63.6C76.6,237.6,84,237.8,89,233.5z"/></g></svg>