<?xml version="1.0" encoding="utf-8"?>
<!-- Generator: Adobe Illustrator 23.1.1, SVG Export Plug-In . SVG Version: 6.00 Build 0)  -->
<svg version="1.1" id="Layer_1" xmlns="http://www.w3.org/2000/svg" xmlns:xlink="http://www.w3.org/1999/xlink" x="0px" y="0px"
	 viewBox="0 0 97 288" style="enable-background:new 0 0 97 288;" xml:space="preserve">
<style type="text/css">
	.st0{fill:none;stroke:#FFFFFF;stroke-width:2;stroke-miterlimit:10;}
	.st1{fill:none;}
	.st2{fill:#010101;}
	.st3{fill-rule:evenodd;clip-rule:evenodd;fill:#010101;}
	.st4{fill:none;stroke:#000000;stroke-width:24;stroke-linecap:round;stroke-miterlimit:10;}
	.st5{fill:none;stroke:#000000;stroke-width:24;stroke-miterlimit:10;}
	.st6{fill:#020202;}
	.st7{fill:none;stroke:#000000;stroke-width:18;stroke-miterlimit:10;}
	.st8{fill:none;stroke:#000000;stroke-width:24;stroke-linecap:round;stroke-linejoin:round;stroke-miterlimit:10;}
	.st9{fill:none;stroke:#000000;stroke-width:24;stroke-linecap:round;stroke-linejoin:round;}
	.st10{fill:none;stroke:#000000;stroke-width:24;stroke-linejoin:round;}
</style>
<g>
	<path d="M37.6,56.5L1.7,110.8c-2.2,3.9-2.2,8.6,0.1,12.5c2.2,3.8,6.4,6.2,10.8,6.2H36v95.9c0,6.9,5.6,12.5,12.5,12.5
		S61,232.2,61,225.3v-95.9h23.4c4.5,0,8.6-2.4,10.8-6.2c1.1-1.9,1.7-4.1,1.7-6.3c0-2.1-0.5-4.3-1.6-6.2l-36-54.3
		c-2.2-3.9-6.4-6.3-10.9-6.3S39.8,52.5,37.6,56.5z"/>
</g>
</svg>
