<?xml version="1.0" encoding="utf-8"?>
<!-- Generator: Adobe Illustrator 23.1.1, SVG Export Plug-In . SVG Version: 6.00 Build 0)  -->
<svg version="1.1" id="Layer_1" xmlns="http://www.w3.org/2000/svg" xmlns:xlink="http://www.w3.org/1999/xlink" x="0px" y="0px"
	 viewBox="0 0 187 288" style="enable-background:new 0 0 187 288;" xml:space="preserve">
<style type="text/css">
	.st0{fill:none;stroke:#FFFFFF;stroke-width:2;stroke-miterlimit:10;}
	.st1{fill:none;}
	.st2{fill:#010101;}
	.st3{fill-rule:evenodd;clip-rule:evenodd;fill:#010101;}
	.st4{fill:none;stroke:#000000;stroke-width:24;stroke-linecap:round;stroke-miterlimit:10;}
	.st5{fill:none;stroke:#000000;stroke-width:24;stroke-miterlimit:10;}
	.st6{fill:#020202;}
	.st7{fill:none;stroke:#000000;stroke-width:18;stroke-miterlimit:10;}
	.st8{fill:none;stroke:#000000;stroke-width:24;stroke-linecap:round;stroke-linejoin:round;stroke-miterlimit:10;}
	.st9{fill:none;stroke:#000000;stroke-width:24;stroke-linecap:round;stroke-linejoin:round;}
	.st10{fill:none;stroke:#000000;stroke-width:24;stroke-linejoin:round;}
</style>
<g>
	<path d="M3.9,151.7c0.3,0.3,0.6,0.7,0.9,1L68.1,216c4.9,4.9,12.8,4.9,17.7,0s4.9-12.8,0-17.7L43.5,156h130
		c6.9,0,12.5-5.6,12.5-12.5s-5.6-12.5-12.5-12.5h-130l42.3-42.3c4.9-4.9,4.9-12.8,0-17.7c-2.4-2.4-5.6-3.7-8.8-3.7s-6.4,1.2-8.8,3.7
		L4.6,134.6C-0.2,139.4-0.4,146.8,3.9,151.7z"/>
</g>
</svg>
