<?xml version="1.0" encoding="utf-8"?>
<!-- Generator: Adobe Illustrator 23.1.1, SVG Export Plug-In . SVG Version: 6.00 Build 0)  -->
<svg version="1.1" id="Layer_1" xmlns="http://www.w3.org/2000/svg" xmlns:xlink="http://www.w3.org/1999/xlink" x="0px" y="0px"
	 viewBox="0 0 252.2 288" style="enable-background:new 0 0 252.2 288;" xml:space="preserve">
<style type="text/css">
	.st0{fill:#FFFFFF;}
	.st1{fill:none;}
	.st2{fill:#010101;}
	.st3{fill-rule:evenodd;clip-rule:evenodd;fill:#010101;}
	.st4{fill:#020202;}
	.st5{fill:none;stroke:#394553;stroke-width:2.5;stroke-miterlimit:10;}
	.st6{fill:none;stroke:#394553;stroke-width:2.5;stroke-linecap:round;stroke-miterlimit:10;}
	.st7{fill:none;stroke:#394553;stroke-width:2.5;stroke-linejoin:round;stroke-miterlimit:10;}
	.st8{fill:none;stroke:#000000;stroke-width:18;stroke-linecap:round;stroke-linejoin:round;stroke-miterlimit:10;}
	.st9{fill:none;stroke:#000000;stroke-width:24;stroke-linejoin:round;}
	.st10{fill:none;stroke:#000000;stroke-width:24;stroke-linecap:round;stroke-linejoin:round;}
	.st11{fill:none;stroke:#484751;stroke-width:2.6322;stroke-linecap:square;stroke-miterlimit:10;}
	
		.st12{fill-rule:evenodd;clip-rule:evenodd;fill:none;stroke:#000000;stroke-width:24;stroke-linecap:round;stroke-linejoin:round;stroke-miterlimit:10;}
	.st13{fill-rule:evenodd;clip-rule:evenodd;fill:none;stroke:#000000;stroke-width:18;stroke-miterlimit:10;}
	
		.st14{fill-rule:evenodd;clip-rule:evenodd;fill:none;stroke:#000000;stroke-width:18;stroke-linecap:round;stroke-linejoin:round;stroke-miterlimit:10;}
	
		.st15{fill-rule:evenodd;clip-rule:evenodd;fill:none;stroke:#000000;stroke-width:12;stroke-linecap:round;stroke-linejoin:round;stroke-miterlimit:10;}
	.st16{fill:none;stroke:#000000;stroke-width:30;stroke-linecap:round;stroke-miterlimit:10;}
</style>
<path d="M245,199.7L149.8,144l95.3-55.4c5.7-3.3,7.7-10.7,4.3-16.4s-10.7-7.7-16.4-4.3l-95,55.2V13.2c0-6.6-5.4-12-12-12
	c-6.6,0-12,5.4-12,12v109.9L19.2,67.6c-5.7-3.3-13.1-1.4-16.4,4.3C-0.6,77.6,1.3,85,7,88.3l95.1,55.6L6.9,199.3
	c-5.7,3.3-7.7,10.7-4.3,16.4c2.2,3.8,6.3,6,10.4,6c2,0,4.1-0.5,6-1.6l95-55.2v109.9c0,6.6,5.4,12,12,12c6.6,0,12-5.4,12-12V164.9
	l94.8,55.5c1.9,1.1,4,1.6,6,1.6c4.1,0,8.1-2.1,10.4-5.9C252.6,210.4,250.7,203,245,199.7z"/>
</svg>
