<?xml version="1.0" encoding="utf-8"?>
<!-- Generator: Adobe Illustrator 23.1.1, SVG Export Plug-In . SVG Version: 6.00 Build 0)  -->
<svg version="1.1" id="Layer_1" xmlns="http://www.w3.org/2000/svg" xmlns:xlink="http://www.w3.org/1999/xlink" x="0px" y="0px"
	 viewBox="0 0 246 288" style="enable-background:new 0 0 246 288;" xml:space="preserve">
<style type="text/css">
	.st0{fill:none;stroke:#FFFFFF;stroke-width:2;stroke-miterlimit:10;}
	.st1{fill:none;}
	.st2{fill:#010101;}
	.st3{fill-rule:evenodd;clip-rule:evenodd;fill:#010101;}
	.st4{fill:none;stroke:#000000;stroke-width:24;stroke-linecap:round;stroke-miterlimit:10;}
	.st5{fill:none;stroke:#000000;stroke-width:24;stroke-miterlimit:10;}
	.st6{fill:#020202;}
	.st7{fill:none;stroke:#000000;stroke-width:18;stroke-miterlimit:10;}
	.st8{fill:none;stroke:#000000;stroke-width:24;stroke-linecap:round;stroke-linejoin:round;stroke-miterlimit:10;}
	.st9{fill:none;stroke:#000000;stroke-width:24;stroke-linecap:round;stroke-linejoin:round;}
	.st10{fill:none;stroke:#000000;stroke-width:24;stroke-linejoin:round;}
</style>
<g>
	<path d="M232.4,251h-31.1V38.7c0-5.9-4.8-10.7-10.7-10.7H54.9c-5.9,0-10.7,4.8-10.7,10.7V251H13.1c-6.6,0-12.3,5.2-12.4,11.8
		C0.6,269.5,6,275,12.8,275h220c6.7,0,12.1-5.5,12-12.2C244.6,256.2,239,251,232.4,251z M72,52h101.4c2.1,0,3.8,1.7,3.8,3.8V251
		h-39.9v-33.9h-30.7V251H68.2V55.8C68.2,53.7,69.9,52,72,52z"/>
	<rect x="87" y="83" width="27" height="23"/>
	<rect x="129" y="83" width="27" height="23"/>
	<rect x="87" y="127" width="27" height="23"/>
	<rect x="129" y="127" width="27" height="23"/>
	<rect x="87" y="171" width="27" height="23"/>
	<rect x="129" y="171" width="27" height="23"/>
</g>
</svg>
