<?xml version="1.0" encoding="utf-8"?>
<!-- Generator: Adobe Illustrator 23.1.1, SVG Export Plug-In . SVG Version: 6.00 Build 0)  -->
<svg version="1.1" id="Layer_1" xmlns="http://www.w3.org/2000/svg" xmlns:xlink="http://www.w3.org/1999/xlink" x="0px" y="0px"
	 viewBox="0 0 195.6 288" style="enable-background:new 0 0 195.6 288;" xml:space="preserve">
<style type="text/css">
	.st0{fill:#FFFFFF;}
	.st1{fill:none;}
	.st2{fill:#010101;}
	.st3{fill-rule:evenodd;clip-rule:evenodd;fill:#010101;}
	.st4{fill:#020202;}
	.st5{fill:none;stroke:#000000;stroke-width:24;stroke-linecap:round;stroke-miterlimit:10;}
	.st6{fill:none;stroke:#000000;stroke-width:24;stroke-linecap:round;stroke-linejoin:round;stroke-miterlimit:10;}
	.st7{fill:none;stroke:#000000;stroke-width:24;stroke-linecap:square;stroke-miterlimit:10;}
	.st8{stroke:#000000;stroke-width:24;stroke-linecap:round;stroke-linejoin:round;stroke-miterlimit:10;}
	.st9{fill:none;stroke:#FFFFFF;stroke-width:24;stroke-linecap:square;stroke-miterlimit:10;}
	.st10{fill:none;stroke:#FFFFFF;stroke-width:18;stroke-linecap:square;stroke-linejoin:round;stroke-miterlimit:10;}
	.st11{fill:none;stroke:#000000;stroke-width:24;stroke-miterlimit:10;}
	.st12{fill:none;stroke:#394553;stroke-width:2.5;stroke-miterlimit:10;}
	.st13{fill:none;stroke:#394553;stroke-width:2.5;stroke-linecap:round;stroke-miterlimit:10;}
	.st14{fill:none;stroke:#394553;stroke-width:2.5;stroke-linejoin:round;stroke-miterlimit:10;}
	.st15{fill:none;stroke:#000000;stroke-width:18;stroke-linecap:round;stroke-linejoin:round;stroke-miterlimit:10;}
</style>
<g>
	<g>
		<path d="M172,276.2H24c-12.8,0-23.2-10.4-23.2-23.2V35.6c0-12.8,10.4-23.2,23.2-23.2h148c12.8,0,23.2,10.4,23.2,23.2V253
			C195.3,265.8,184.8,276.2,172,276.2z M24.1,30.3c-2.9,0-5.2,2.4-5.2,5.2v217.4c0,2.9,2.4,5.2,5.2,5.2h148c2.9,0,5.2-2.4,5.2-5.2
			V35.5c0-2.9-2.4-5.2-5.2-5.2H24.1z"/>
	</g>
</g>
<ellipse cx="130.1" cy="153.5" rx="21.6" ry="21.7"/>
<ellipse cx="67" cy="153.5" rx="21.6" ry="21.7"/>
<ellipse cx="129.6" cy="213.5" rx="21.6" ry="21.7"/>
<ellipse cx="66.5" cy="213.5" rx="21.6" ry="21.7"/>
<g>
	<path d="M143.7,111.3H51.8c-8.9,0-16.2-7.3-16.2-16.2V67.2c0-8.9,7.3-16.2,16.2-16.2h91.9c8.9,0,16.2,7.3,16.2,16.2v27.9
		C159.9,104.1,152.6,111.3,143.7,111.3z M53.6,93.3h88.3V69H53.6V93.3z"/>
</g>
</svg>
