<?xml version="1.0" encoding="utf-8"?>
<!-- Generator: Adobe Illustrator 23.1.1, SVG Export Plug-In . SVG Version: 6.00 Build 0)  -->
<svg version="1.1" id="Layer_1" xmlns="http://www.w3.org/2000/svg" xmlns:xlink="http://www.w3.org/1999/xlink" x="0px" y="0px"
	 viewBox="0 0 248.9 288" style="enable-background:new 0 0 248.9 288;" xml:space="preserve">
<style type="text/css">
	.st0{fill:#FFFFFF;}
	.st1{fill:none;}
	.st2{fill:#010101;}
	.st3{fill-rule:evenodd;clip-rule:evenodd;fill:#010101;}
	.st4{fill:#020202;}
	.st5{fill:none;stroke:#000000;stroke-width:24;stroke-linecap:round;stroke-miterlimit:10;}
	.st6{fill:none;stroke:#000000;stroke-width:24;stroke-linecap:round;stroke-linejoin:round;stroke-miterlimit:10;}
	.st7{fill:none;stroke:#000000;stroke-width:24;stroke-linecap:square;stroke-miterlimit:10;}
	.st8{stroke:#000000;stroke-width:24;stroke-linecap:round;stroke-linejoin:round;stroke-miterlimit:10;}
	.st9{fill:none;stroke:#FFFFFF;stroke-width:24;stroke-linecap:square;stroke-miterlimit:10;}
	.st10{fill:none;stroke:#FFFFFF;stroke-width:18;stroke-linecap:square;stroke-linejoin:round;stroke-miterlimit:10;}
	.st11{fill:none;stroke:#000000;stroke-width:24;stroke-miterlimit:10;}
	.st12{fill:none;stroke:#394553;stroke-width:2.5;stroke-miterlimit:10;}
	.st13{fill:none;stroke:#394553;stroke-width:2.5;stroke-linecap:round;stroke-miterlimit:10;}
	.st14{fill:none;stroke:#394553;stroke-width:2.5;stroke-linejoin:round;stroke-miterlimit:10;}
	.st15{fill:none;stroke:#000000;stroke-width:18;stroke-linecap:round;stroke-linejoin:round;stroke-miterlimit:10;}
</style>
<g>
	<path d="M227.4,44.6h-41.3V18.9c0-6.9-5.6-12.5-12.5-12.5s-12.5,5.6-12.5,12.5v25.7H89V18.9C89,12,83.4,6.4,76.5,6.4S64,12,64,18.9
		v25.7H21.7c-11.6,0-21,9.4-21,21v190.6c0,11.6,9.4,21,21,21h205.7c11.6,0,21-9.4,21-21V65.6C248.4,54,239,44.6,227.4,44.6z
		 M227.4,259.2H21.7c-1.6,0-3-1.4-3-3V95.8h211.7v160.4C230.4,257.8,229,259.2,227.4,259.2z"/>
	<ellipse cx="126" cy="148.1" rx="21.6" ry="21.7"/>
	<ellipse cx="66.9" cy="148.1" rx="21.6" ry="21.7"/>
	<ellipse cx="185" cy="148.1" rx="21.6" ry="21.7"/>
	<ellipse cx="125.5" cy="208.1" rx="21.6" ry="21.7"/>
	<ellipse cx="66.4" cy="208.1" rx="21.6" ry="21.7"/>
	<ellipse cx="184.5" cy="208.1" rx="21.6" ry="21.7"/>
</g>
</svg>
