<?xml version="1.0" encoding="utf-8"?>
<!-- Generator: Adobe Illustrator 23.1.1, SVG Export Plug-In . SVG Version: 6.00 Build 0)  -->
<svg version="1.1" id="Layer_1" xmlns="http://www.w3.org/2000/svg" xmlns:xlink="http://www.w3.org/1999/xlink" x="0px" y="0px"
	 viewBox="0 0 255.5 288" style="enable-background:new 0 0 255.5 288;" xml:space="preserve">
<style type="text/css">
	.st0{fill:#FFFFFF;}
	.st1{fill:none;}
	.st2{fill:#010101;}
	.st3{fill-rule:evenodd;clip-rule:evenodd;fill:#010101;}
	.st4{fill:#020202;}
	.st5{fill:none;stroke:#000000;stroke-width:24;stroke-linecap:round;stroke-miterlimit:10;}
	.st6{fill:none;stroke:#000000;stroke-width:24;stroke-linecap:round;stroke-linejoin:round;stroke-miterlimit:10;}
	.st7{fill:none;stroke:#000000;stroke-width:24;stroke-linecap:square;stroke-miterlimit:10;}
	.st8{stroke:#000000;stroke-width:24;stroke-linecap:round;stroke-linejoin:round;stroke-miterlimit:10;}
	.st9{fill:none;stroke:#FFFFFF;stroke-width:24;stroke-linecap:square;stroke-miterlimit:10;}
	.st10{fill:none;stroke:#FFFFFF;stroke-width:18;stroke-linecap:square;stroke-linejoin:round;stroke-miterlimit:10;}
	.st11{fill:none;stroke:#000000;stroke-width:24;stroke-miterlimit:10;}
	.st12{fill:none;stroke:#394553;stroke-width:2.5;stroke-miterlimit:10;}
	.st13{fill:none;stroke:#394553;stroke-width:2.5;stroke-linecap:round;stroke-miterlimit:10;}
	.st14{fill:none;stroke:#394553;stroke-width:2.5;stroke-linejoin:round;stroke-miterlimit:10;}
	.st15{fill:none;stroke:#000000;stroke-width:18;stroke-linecap:round;stroke-linejoin:round;stroke-miterlimit:10;}
</style>
<g>
	<path d="M127.5,274.9C57.6,274.9,0.7,218,0.7,148.1S57.6,21.3,127.5,21.3s126.8,56.9,126.8,126.8S197.4,274.9,127.5,274.9z
		 M127.5,46.2C71.4,46.2,25.7,91.9,25.7,148c0,56.1,45.7,101.8,101.8,101.8c56.1,0,101.8-45.7,101.8-101.8
		C229.3,91.9,183.6,46.2,127.5,46.2z"/>
</g>
<g>
	<path d="M170.6,194.3c-2.7,0-5.3-0.8-7.6-2.6l-48.9-37.5V70.4c0-6.9,5.6-12.5,12.5-12.5s12.5,5.6,12.5,12.5v71.5l39.1,30
		c5.5,4.2,6.5,12,2.3,17.5C178,192.6,174.3,194.3,170.6,194.3z"/>
</g>
</svg>
