<?xml version="1.0" encoding="utf-8"?>
<!-- Generator: Adobe Illustrator 23.1.1, SVG Export Plug-In . SVG Version: 6.00 Build 0)  -->
<svg version="1.1" id="Layer_1" xmlns="http://www.w3.org/2000/svg" xmlns:xlink="http://www.w3.org/1999/xlink" x="0px" y="0px"
	 viewBox="0 0 229.5 288" style="enable-background:new 0 0 229.5 288;" xml:space="preserve">
<style type="text/css">
	.st0{fill:#FFFFFF;}
	.st1{fill:none;}
	.st2{fill:#010101;}
	.st3{fill-rule:evenodd;clip-rule:evenodd;fill:#010101;}
	.st4{fill:#020202;}
	.st5{fill:none;stroke:#394553;stroke-width:2.5;stroke-miterlimit:10;}
	.st6{fill:none;stroke:#394553;stroke-width:2.5;stroke-linecap:round;stroke-miterlimit:10;}
	.st7{fill:none;stroke:#394553;stroke-width:2.5;stroke-linejoin:round;stroke-miterlimit:10;}
	.st8{fill:none;stroke:#000000;stroke-width:18;stroke-linecap:round;stroke-linejoin:round;stroke-miterlimit:10;}
	.st9{fill:none;stroke:#000000;stroke-width:24;stroke-linejoin:round;}
	.st10{fill:none;stroke:#000000;stroke-width:24;stroke-linecap:round;stroke-linejoin:round;}
	.st11{fill:none;stroke:#484751;stroke-width:2.6322;stroke-linecap:square;stroke-miterlimit:10;}
	
		.st12{fill-rule:evenodd;clip-rule:evenodd;fill:none;stroke:#000000;stroke-width:24;stroke-linecap:round;stroke-linejoin:round;stroke-miterlimit:10;}
	.st13{fill-rule:evenodd;clip-rule:evenodd;fill:none;stroke:#000000;stroke-width:18;stroke-miterlimit:10;}
	
		.st14{fill-rule:evenodd;clip-rule:evenodd;fill:none;stroke:#000000;stroke-width:18;stroke-linecap:round;stroke-linejoin:round;stroke-miterlimit:10;}
	
		.st15{fill-rule:evenodd;clip-rule:evenodd;fill:none;stroke:#000000;stroke-width:12;stroke-linecap:round;stroke-linejoin:round;stroke-miterlimit:10;}
	.st16{fill:none;stroke:#000000;stroke-width:30;stroke-linecap:round;stroke-miterlimit:10;}
</style>
<g>
	<circle cx="114.5" cy="75" r="69.3"/>
</g>
<g>
	<path d="M169.4,166.3v31.6c15.9,4.1,27.8,18.5,27.8,35.7v18.5c0,2.4-1,4.8-2.7,6.5l-6,6c-1.8,1.8-4.7,1.8-6.5,0l-6.5-6.5
		c-1.8-1.8-1.8-4.7,0-6.5l3.3-3.3v-13.7c0-9.2-6.3-17.8-15.4-19.3c-11.6-1.9-21.7,7.1-21.7,18.3v14.7l3.3,3.3c1.8,1.8,1.8,4.7,0,6.5
		l-6.5,6.5c-1.8,1.8-4.7,1.8-6.5,0l-6-6c-1.7-1.7-2.7-4.1-2.7-6.5v-16.9c0-17.4,11.5-33.1,27.8-37.4v-36.2
		c-11.2,4.7-23.5,7.3-36.4,7.3c-12.5,0-24.4-2.4-35.3-6.8v43.2c13.4,4,23.2,16.4,23.2,31.1c0,17.9-14.5,32.4-32.4,32.4
		c-17.9,0-32.4-14.5-32.4-32.4c0-14.7,9.8-27.1,23.2-31.1v-39.6c-35.1,21.2-59,68.5-59,111.3c31.7,7.5,71.1,11.6,113.6,11.6
		c41.9,0,80.6-4.3,112-11.6C227.3,234.5,204,187.8,169.4,166.3z"/>
	<path d="M56.1,236.3c0,7.6,6.3,13.9,13.9,13.9c7.6,0,13.9-6.3,13.9-13.9c0-7.6-6.3-13.9-13.9-13.9
		C62.3,222.4,56.1,228.7,56.1,236.3z"/>
</g>
</svg>
