<?xml version="1.0" encoding="utf-8"?>
<!-- Generator: Adobe Illustrator 23.1.1, SVG Export Plug-In . SVG Version: 6.00 Build 0)  -->
<svg version="1.1" id="Layer_1" xmlns="http://www.w3.org/2000/svg" xmlns:xlink="http://www.w3.org/1999/xlink" x="0px" y="0px"
	 viewBox="0 0 138.2 288" style="enable-background:new 0 0 138.2 288;" xml:space="preserve">
<style type="text/css">
	.st0{fill:#FFFFFF;}
	.st1{fill:none;}
	.st2{fill:#010101;}
	.st3{fill-rule:evenodd;clip-rule:evenodd;fill:#010101;}
	.st4{fill:#020202;}
	.st5{fill:none;stroke:#394553;stroke-width:2.5;stroke-miterlimit:10;}
	.st6{fill:none;stroke:#394553;stroke-width:2.5;stroke-linecap:round;stroke-miterlimit:10;}
	.st7{fill:none;stroke:#394553;stroke-width:2.5;stroke-linejoin:round;stroke-miterlimit:10;}
	.st8{fill:none;stroke:#000000;stroke-width:18;stroke-linecap:round;stroke-linejoin:round;stroke-miterlimit:10;}
	.st9{fill:none;stroke:#000000;stroke-width:24;stroke-linejoin:round;}
	.st10{fill:none;stroke:#000000;stroke-width:24;stroke-linecap:round;stroke-linejoin:round;}
	.st11{fill:none;stroke:#484751;stroke-width:2.6322;stroke-linecap:square;stroke-miterlimit:10;}
	
		.st12{fill-rule:evenodd;clip-rule:evenodd;fill:none;stroke:#000000;stroke-width:24;stroke-linecap:round;stroke-linejoin:round;stroke-miterlimit:10;}
	.st13{fill-rule:evenodd;clip-rule:evenodd;fill:none;stroke:#000000;stroke-width:18;stroke-miterlimit:10;}
	
		.st14{fill-rule:evenodd;clip-rule:evenodd;fill:none;stroke:#000000;stroke-width:18;stroke-linecap:round;stroke-linejoin:round;stroke-miterlimit:10;}
	
		.st15{fill-rule:evenodd;clip-rule:evenodd;fill:none;stroke:#000000;stroke-width:12;stroke-linecap:round;stroke-linejoin:round;stroke-miterlimit:10;}
	.st16{fill:none;stroke:#000000;stroke-width:30;stroke-linecap:round;stroke-miterlimit:10;}
</style>
<path d="M136.3,173.3c-3.8-23.6-25.8-41.4-51-41.4H49.7c-7.5,0-14.7-3.3-19.5-9c-5-5.8-7-13.3-5.7-21c2-12.1,13.7-21.2,27.3-21.2h40
	c7.1,0,12.2,2.1,15.5,4.3c3.8,2.5,8.7,2.8,12.7,0.5l0.3-0.2c7.5-4.4,8-15.1,0.8-19.9c-7-4.8-16.8-8.7-29.3-8.7H80.5V12.2
	c0-6.6-5.4-12-12-12s-12,5.4-12,12v44.5h-4.8c-25.2,0-47.1,17.8-51,41.4c-2.4,14.6,1.7,29.3,11.1,40.4c9.5,11.1,23.2,17.5,37.8,17.5
	h35.6c13.6,0,25.3,9.1,27.3,21.2c1.3,7.7-0.8,15.2-5.7,21c-4.9,5.7-12,9-19.5,9H39.8c-3.9,0-7.3-1.4-10.1-3.1
	c-4.3-2.6-9.7-2.2-13.5,1l-0.7,0.6c-6.1,5.1-5.4,14.6,1.4,18.8c5.9,3.6,13.6,6.7,22.9,6.7h16.7v44.5c0,6.6,5.4,12,12,12
	s12-5.4,12-12v-44.5h6.8c14.6,0,28.4-6.4,37.8-17.5C134.6,202.6,138.7,187.9,136.3,173.3z"/>
</svg>
