<?xml version="1.0" encoding="utf-8"?>
<!-- Generator: Adobe Illustrator 23.1.1, SVG Export Plug-In . SVG Version: 6.00 Build 0)  -->
<svg version="1.1" id="Layer_1" xmlns="http://www.w3.org/2000/svg" xmlns:xlink="http://www.w3.org/1999/xlink" x="0px" y="0px"
	 viewBox="0 0 287.1 288" style="enable-background:new 0 0 287.1 288;" xml:space="preserve">
<style type="text/css">
	.st0{fill:#FFFFFF;}
	.st1{fill:none;}
	.st2{fill:#010101;}
	.st3{fill-rule:evenodd;clip-rule:evenodd;fill:#010101;}
	.st4{fill:#020202;}
</style>
<g>
	<g>
		<path d="M274.7,257.4H11.9c-5.9,0-10.7-4.8-10.7-10.7v-73.9c0-6.9,5.4-12.8,12.3-12.9c7-0.1,12.7,5.5,12.7,12.5v49.3
			c0,5.9,4.8,10.7,10.7,10.7h212.8c5.9,0,10.7-4.8,10.7-10.7v-48.9c0-6.9,5.4-12.8,12.3-12.9c7-0.1,12.7,5.5,12.7,12.5v74.3
			C285.4,252.6,280.6,257.4,274.7,257.4z"/>
	</g>
</g>
<g>
	<g>
		<path d="M135.2,12.3c-0.3,0.3-0.7,0.6-1,0.9L70.9,76.5c-4.9,4.9-4.9,12.8,0,17.7s12.8,4.9,17.7,0l42.3-42.3v130
			c0,6.9,5.6,12.5,12.5,12.5s12.5-5.6,12.5-12.5v-130l42.3,42.3c4.9,4.9,12.8,4.9,17.7,0c2.4-2.4,3.7-5.6,3.7-8.8s-1.2-6.4-3.7-8.8
			L152.3,13C147.5,8.2,140.1,8,135.2,12.3z"/>
	</g>
</g>
</svg>
