<?xml version="1.0" encoding="utf-8"?>
<!-- Generator: Adobe Illustrator 23.1.1, SVG Export Plug-In . SVG Version: 6.00 Build 0)  -->
<svg version="1.1" id="Layer_1" xmlns="http://www.w3.org/2000/svg" xmlns:xlink="http://www.w3.org/1999/xlink" x="0px" y="0px"
	 viewBox="0 0 239.5 288" style="enable-background:new 0 0 239.5 288;" xml:space="preserve">
<style type="text/css">
	.st0{fill:#FFFFFF;}
	.st1{fill:none;}
	.st2{fill:#010101;}
	.st3{fill-rule:evenodd;clip-rule:evenodd;fill:#010101;}
	.st4{fill:#020202;}
</style>
<g>
	<g>
		<path d="M227.7,267.3H13c-6,0-10.9-4.9-10.9-10.9V146.5c0-6.9,5.4-12.8,12.3-12.9c7-0.1,12.7,5.5,12.7,12.5v85.3
			c0,6,4.9,10.9,10.9,10.9h164.7c6,0,10.9-4.9,10.9-10.9V66.7c0-6-4.9-10.9-10.9-10.9h-82.3c-6.9,0-12.8-5.4-12.9-12.3
			c-0.1-7,5.5-12.7,12.5-12.7h107.7c6,0,10.9,4.9,10.9,10.9v214.7C238.6,262.4,233.7,267.3,227.7,267.3z"/>
	</g>
</g>
<g>
	<g>
		<path d="M3.9,73.8c-0.1-2.9,1.2-5.3,3.2-7.4C17.5,55.9,28,45.5,38.5,35c4.7-4.7,10.5-4.7,15.2-0.1c4.4,4.3,8.7,8.7,13.1,13
			c1.2,1.1,1.3,1.8,0.1,3c-14.5,14.5-29,29-43.5,43.5c-1,1-1.7,1.3-2.8,0.1c-4.6-4.7-9.3-9.3-13.9-14C4.8,78.9,3.8,76.6,3.9,73.8z"
			/>
	</g>
	<g>
		<path d="M194.4,215.7c-6.3-19.3-12.7-38.5-19-57.8c-0.4-1.3-1-2.3-2-3.3c-31.3-31.3-62.6-62.6-93.9-94c-1.5-1.5-2.4-1.8-4.1-0.1
			C61.3,74.7,47.2,88.8,33,102.9c-1.8,1.8-1.6,2.7,0.1,4.3c31.3,31.2,62.5,62.4,93.7,93.7c1,1,2.2,1.7,3.5,2.1
			c8.7,2.8,17.4,5.7,26.1,8.6c10.4,3.4,20.9,6.9,31.3,10.3c3.8,1.3,6.9-0.6,7-4.6C194.7,217.2,194.6,216.4,194.4,215.7z M137.3,194
			c9.8-9.8,19.1-19.1,28.9-28.9c4.7,14.2,9.4,28.3,14.2,43.1C165.7,203.3,151.6,198.7,137.3,194z"/>
	</g>
</g>
</svg>
