<?xml version="1.0" encoding="utf-8"?>
<!-- Generator: Adobe Illustrator 23.1.1, SVG Export Plug-In . SVG Version: 6.00 Build 0)  -->
<svg version="1.1" id="Layer_1" xmlns="http://www.w3.org/2000/svg" xmlns:xlink="http://www.w3.org/1999/xlink" x="0px" y="0px"
	 viewBox="0 0 221.3 288" style="enable-background:new 0 0 221.3 288;" xml:space="preserve">
<style type="text/css">
	.st0{fill:#FFFFFF;}
	.st1{fill:none;}
	.st2{fill:#010101;}
	.st3{fill-rule:evenodd;clip-rule:evenodd;fill:#010101;}
	.st4{fill:#020202;}
	.st5{fill:none;stroke:#000000;stroke-width:24;stroke-linecap:round;stroke-miterlimit:10;}
	.st6{fill:none;stroke:#000000;stroke-width:24;stroke-linecap:round;stroke-linejoin:round;stroke-miterlimit:10;}
	.st7{fill:none;stroke:#000000;stroke-width:24;stroke-linecap:square;stroke-miterlimit:10;}
	.st8{stroke:#000000;stroke-width:24;stroke-linecap:round;stroke-linejoin:round;stroke-miterlimit:10;}
	.st9{fill:none;stroke:#FFFFFF;stroke-width:24;stroke-linecap:square;stroke-miterlimit:10;}
	.st10{fill:none;stroke:#FFFFFF;stroke-width:18;stroke-linecap:square;stroke-linejoin:round;stroke-miterlimit:10;}
	.st11{fill:none;stroke:#000000;stroke-width:24;stroke-miterlimit:10;}
	.st12{fill:none;stroke:#394553;stroke-width:2.5;stroke-miterlimit:10;}
	.st13{fill:none;stroke:#394553;stroke-width:2.5;stroke-linecap:round;stroke-miterlimit:10;}
	.st14{fill:none;stroke:#394553;stroke-width:2.5;stroke-linejoin:round;stroke-miterlimit:10;}
	.st15{fill:none;stroke:#000000;stroke-width:18;stroke-linecap:round;stroke-linejoin:round;stroke-miterlimit:10;}
</style>
<g>
	<path d="M217,74.1L147.9,5.6c-2-2.1-4.8-3.2-7.6-3.2H23.7C11.1,2.4,0.9,12.6,0.9,25.2v237.6c0,12.6,10.2,22.8,22.8,22.8h173.7
		c12.6,0,22.8-10.2,22.8-22.8v-181C220.2,78.9,219,76.1,217,74.1z M144.7,36.3l41.3,41h-41.3V36.3z M24.9,261.6V26.4h95.8v59.2
		c0,8.6,7,15.6,15.6,15.6h59.8v160.4H24.9z"/>
	<path d="M159.5,169.7h-36.5v-36.5c0-6.6-5.4-12-12-12s-12,5.4-12,12v36.5H62.6c-6.6,0-12,5.4-12,12s5.4,12,12,12h36.5v36.5
		c0,6.6,5.4,12,12,12s12-5.4,12-12v-36.5h36.5c6.6,0,12-5.4,12-12S166.2,169.7,159.5,169.7z"/>
</g>
</svg>
