<?xml version="1.0" encoding="utf-8"?>
<!-- Generator: Adobe Illustrator 23.1.1, SVG Export Plug-In . SVG Version: 6.00 Build 0)  -->
<svg version="1.1" id="Layer_1" xmlns="http://www.w3.org/2000/svg" xmlns:xlink="http://www.w3.org/1999/xlink" x="0px" y="0px"
	 viewBox="0 0 220.7 288" style="enable-background:new 0 0 220.7 288;" xml:space="preserve">
<style type="text/css">
	.st0{fill:#FFFFFF;}
	.st1{fill:none;}
	.st2{fill:#010101;}
	.st3{fill-rule:evenodd;clip-rule:evenodd;fill:#010101;}
	.st4{fill:#020202;}
	.st5{fill:none;stroke:#394553;stroke-width:2.5;stroke-miterlimit:10;}
	.st6{fill:none;stroke:#394553;stroke-width:2.5;stroke-linecap:round;stroke-miterlimit:10;}
	.st7{fill:none;stroke:#394553;stroke-width:2.5;stroke-linejoin:round;stroke-miterlimit:10;}
	.st8{fill:none;stroke:#000000;stroke-width:18;stroke-linecap:round;stroke-linejoin:round;stroke-miterlimit:10;}
	.st9{fill:none;stroke:#000000;stroke-width:24;stroke-linejoin:round;}
	.st10{fill:none;stroke:#000000;stroke-width:24;stroke-linecap:round;stroke-linejoin:round;}
	.st11{fill:none;stroke:#484751;stroke-width:2.6322;stroke-linecap:square;stroke-miterlimit:10;}
	
		.st12{fill-rule:evenodd;clip-rule:evenodd;fill:none;stroke:#000000;stroke-width:24;stroke-linecap:round;stroke-linejoin:round;stroke-miterlimit:10;}
	.st13{fill-rule:evenodd;clip-rule:evenodd;fill:none;stroke:#000000;stroke-width:18;stroke-miterlimit:10;}
	
		.st14{fill-rule:evenodd;clip-rule:evenodd;fill:none;stroke:#000000;stroke-width:18;stroke-linecap:round;stroke-linejoin:round;stroke-miterlimit:10;}
	
		.st15{fill-rule:evenodd;clip-rule:evenodd;fill:none;stroke:#000000;stroke-width:12;stroke-linecap:round;stroke-linejoin:round;stroke-miterlimit:10;}
	.st16{fill:none;stroke:#000000;stroke-width:30;stroke-linecap:round;stroke-miterlimit:10;}
</style>
<g>
	<g>
		<polygon class="st1" points="145,77.8 186.3,77.8 145,36.9 		"/>
	</g>
	<path d="M217.3,74.7L148.2,6.1c-2-2-4.8-3.2-7.7-3.2H24C11.4,2.9,1.2,13.1,1.2,25.7v198.7v8.1v30.9c0,12.6,10.2,22.8,22.8,22.8
		h173.7c12.6,0,22.8-10.2,22.8-22.8v-181C220.5,79.5,219.3,76.7,217.3,74.7z M145,36.8l41.3,41H145V36.8z M196.4,262.2H25.2v-29.7
		v-8.1V27H121v59.2c0,8.6,7,15.6,15.6,15.6h59.8V262.2z"/>
</g>
<path d="M172.1,186.1c-7.1-7-27.5-5.1-37.7-3.8c-10.1-6.1-16.8-14.6-21.5-27.1c2.3-9.4,5.9-23.8,3.2-32.8
	c-2.5-15.3-22.1-13.8-24.9-3.5c-2.6,9.4-0.2,22.5,4.1,39.3c-5.9,14-14.6,32.8-20.7,43.6c-11.7,6-27.5,15.3-29.9,27.1
	c-1.9,9.3,15.2,32.3,44.6-18.3c13.1-4.3,27.4-9.7,40.1-11.8c11.1,6,24,10,32.7,10C176.7,208.8,178.2,192.2,172.1,186.1z M56.1,231.7
	c3-8,14.3-17.3,17.8-20.5C62.7,228.9,56.1,232.1,56.1,231.7z M103.8,120c4.3,0,3.9,18.8,1.1,23.9C102.3,135.8,102.4,120,103.8,120z
	 M89.6,200c5.7-9.9,10.5-21.7,14.5-32c4.9,8.8,11.1,15.9,17.6,20.8C109.5,191.3,98.9,196.5,89.6,200z M166.6,197.1
	c0,0-2.9,3.5-21.8-4.6C165.3,191,168.7,195.7,166.6,197.1z"/>
</svg>
