<?xml version="1.0" encoding="utf-8"?>
<!-- Generator: Adobe Illustrator 23.1.1, SVG Export Plug-In . SVG Version: 6.00 Build 0)  -->
<svg version="1.1" id="Layer_1" xmlns="http://www.w3.org/2000/svg" xmlns:xlink="http://www.w3.org/1999/xlink" x="0px" y="0px"
	 viewBox="0 0 221.1 288" style="enable-background:new 0 0 221.1 288;" xml:space="preserve">
<style type="text/css">
	.st0{fill:#FFFFFF;}
	.st1{fill:none;}
	.st2{fill:#010101;}
	.st3{fill-rule:evenodd;clip-rule:evenodd;fill:#010101;}
	.st4{fill:#020202;}
	.st5{fill:none;stroke:#394553;stroke-width:2.5;stroke-miterlimit:10;}
	.st6{fill:none;stroke:#394553;stroke-width:2.5;stroke-linecap:round;stroke-miterlimit:10;}
	.st7{fill:none;stroke:#394553;stroke-width:2.5;stroke-linejoin:round;stroke-miterlimit:10;}
	.st8{fill:none;stroke:#000000;stroke-width:18;stroke-linecap:round;stroke-linejoin:round;stroke-miterlimit:10;}
	.st9{fill:none;stroke:#000000;stroke-width:24;stroke-linejoin:round;}
	.st10{fill:none;stroke:#000000;stroke-width:24;stroke-linecap:round;stroke-linejoin:round;}
	.st11{fill:none;stroke:#484751;stroke-width:2.6322;stroke-linecap:square;stroke-miterlimit:10;}
	
		.st12{fill-rule:evenodd;clip-rule:evenodd;fill:none;stroke:#000000;stroke-width:24;stroke-linecap:round;stroke-linejoin:round;stroke-miterlimit:10;}
	.st13{fill-rule:evenodd;clip-rule:evenodd;fill:none;stroke:#000000;stroke-width:18;stroke-miterlimit:10;}
	
		.st14{fill-rule:evenodd;clip-rule:evenodd;fill:none;stroke:#000000;stroke-width:18;stroke-linecap:round;stroke-linejoin:round;stroke-miterlimit:10;}
	
		.st15{fill-rule:evenodd;clip-rule:evenodd;fill:none;stroke:#000000;stroke-width:12;stroke-linecap:round;stroke-linejoin:round;stroke-miterlimit:10;}
	.st16{fill:none;stroke:#000000;stroke-width:30;stroke-linecap:round;stroke-miterlimit:10;}
	.st17{fill:#1A1A1A;}
</style>
<g>
	<path d="M217,73.6L147.9,5.1c-2-2.1-4.8-3.2-7.6-3.2H23.7C11.1,1.9,0.9,12.1,0.9,24.7v237.6c0,12.6,10.2,22.8,22.8,22.8h173.7
		c12.6,0,22.8-10.2,22.8-22.8v-181C220.2,78.4,219,75.6,217,73.6z M144.7,35.8l41.3,41h-41.3V35.8z M24.9,261.1V25.9h95.8v59.2
		c0,8.6,7,15.6,15.6,15.6h59.8v160.4H24.9z"/>
	<path d="M173.5,130.5c-1.6-1.5-3.8-2.4-6.2-2.4H49.4c-1.7,0-3.3,0.5-4.6,1.3c-2.8,1.1-4.8,3.3-4.8,5.9v87c0,1.8,1,3.5,2.6,4.7
		c1.6,1.9,4.1,3.2,6.9,3.2h117.9c1.9,0,3.7-0.6,5.1-1.6c2.7-1.1,4.5-3.3,4.5-5.8v-87C176.9,133.6,175.6,131.7,173.5,130.5z
		 M158.9,170.3H58V146h101V170.3z M58,188.3h42.1V212H58V188.3z M118.1,188.3h40.8V212h-40.8V188.3z"/>
</g>
</svg>
