<svg xmlns="http://www.w3.org/2000/svg" xmlns:xlink="http://www.w3.org/1999/xlink" id="Layer_1" x="0" y="0" enable-background="new 0 0 267.8 288" version="1.1" viewBox="0 0 267.8 288" xml:space="preserve"><style type="text/css">.st1{fill:none}</style><g><g><polygon points="190.6 77.8 231.9 77.8 190.6 36.9" class="st1"/></g><g><path d="M262.9,74.7L193.8,6.1c-2-2-4.8-3.2-7.7-3.2H69.6C57,2.9,46.8,13.1,46.8,25.7v63.7c0,6.6,5.4,12,12,12l0,0 c6.6,0,12-5.4,12-12V27h95.8v59.2c0,8.6,7,15.6,15.6,15.6H242v160.4H70.8v-37.8c0-6.6-5.4-12-12-12l0,0c-6.6,0-12,5.4-12,12v39 c0,12.6,10.2,22.8,22.8,22.8h173.7c12.6,0,22.8-10.2,22.8-22.8v-181C266.1,79.5,264.9,76.7,262.9,74.7z M190.6,77.8v-41l41.3,41 H190.6z"/></g></g><g><g><path d="M0.5,126.8h33.1c7.2,0,12.6,1.7,16.2,5.1c3.6,3.4,5.4,8.3,5.4,14.6c0,6.5-2,11.6-5.9,15.2c-3.9,3.7-9.9,5.5-17.9,5.5H20.5 v23.9h-20L0.5,126.8L0.5,126.8z M20.5,154.2h4.9c3.8,0,6.5-0.7,8.1-2c1.6-1.3,2.3-3,2.3-5.1c0-2-0.7-3.7-2-5.1s-3.9-2.1-7.6-2.1 h-5.7V154.2z"/></g><g><path d="M66.1,126.8h29.6c5.8,0,10.5,0.8,14.1,2.4c3.6,1.6,6.6,3.9,8.9,6.8s4,6.4,5.1,10.3s1.6,8.1,1.6,12.5 c0,6.9-0.8,12.2-2.4,16c-1.6,3.8-3.7,7-6.5,9.5s-5.8,4.3-9,5.1c-4.4,1.2-8.3,1.8-11.9,1.8H66v-64.4H66.1z M86,141.4v35.2h4.9 c4.2,0,7.1-0.5,8.9-1.4c1.8-0.9,3.1-2.5,4.1-4.8s1.5-6,1.5-11.2c0-6.8-1.1-11.5-3.3-14s-5.9-3.8-11.1-3.8H86z"/></g><g><path d="M135.2,126.8h49.2v13.8h-29.2v11.2h25v13h-25v26.3h-20V126.8z"/></g></g></svg>