<?xml version="1.0" encoding="utf-8"?>
<!-- Generator: Adobe Illustrator 23.1.1, SVG Export Plug-In . SVG Version: 6.00 Build 0)  -->
<svg version="1.1" id="Layer_1" xmlns="http://www.w3.org/2000/svg" xmlns:xlink="http://www.w3.org/1999/xlink" x="0px" y="0px"
	 viewBox="0 0 221.7 288" style="enable-background:new 0 0 221.7 288;" xml:space="preserve">
<style type="text/css">
	.st0{fill:#FFFFFF;}
	.st1{fill:none;}
	.st2{fill:#010101;}
	.st3{fill-rule:evenodd;clip-rule:evenodd;fill:#010101;}
	.st4{fill:#020202;}
	.st5{fill:none;stroke:#000000;stroke-width:24;stroke-linecap:round;stroke-miterlimit:10;}
	.st6{fill:none;stroke:#000000;stroke-width:24;stroke-linecap:round;stroke-linejoin:round;stroke-miterlimit:10;}
	.st7{fill:none;stroke:#000000;stroke-width:24;stroke-linecap:square;stroke-miterlimit:10;}
	.st8{stroke:#000000;stroke-width:24;stroke-linecap:round;stroke-linejoin:round;stroke-miterlimit:10;}
	.st9{fill:none;stroke:#FFFFFF;stroke-width:24;stroke-linecap:square;stroke-miterlimit:10;}
	.st10{fill:none;stroke:#FFFFFF;stroke-width:18;stroke-linecap:square;stroke-linejoin:round;stroke-miterlimit:10;}
	.st11{fill:none;stroke:#000000;stroke-width:24;stroke-miterlimit:10;}
	.st12{fill:none;stroke:#394553;stroke-width:2.5;stroke-miterlimit:10;}
	.st13{fill:none;stroke:#394553;stroke-width:2.5;stroke-linecap:round;stroke-miterlimit:10;}
	.st14{fill:none;stroke:#394553;stroke-width:2.5;stroke-linejoin:round;stroke-miterlimit:10;}
	.st15{fill:none;stroke:#000000;stroke-width:18;stroke-linecap:round;stroke-linejoin:round;stroke-miterlimit:10;}
</style>
<g>
	<g>
		<path d="M140.2,102c-13.6,0-24.7-11.1-24.7-24.7v-75h-92C11,2.4,0.8,12.6,0.8,25.2v237.6c0,12.6,10.2,22.8,22.8,22.8h173.7
			c12.6,0,22.8-10.2,22.8-22.8V102H140.2z"/>
	</g>
	<g>
		<path d="M139.6,77.4c0,0.4,0.3,0.7,0.7,0.7h79.1c-0.5-1.5-1.4-2.8-2.5-3.9L147.8,5.6c-2-2.1-4.8-3.2-7.6-3.2h-0.6V77.4z"/>
	</g>
</g>
<g>
	<path class="st0" d="M50.4,166.1h117.9c5,0,9-4,9-9s-4-9-9-9H50.4c-5,0-9,4-9,9C41.4,162,45.5,166.1,50.4,166.1z"/>
</g>
<g>
	<path class="st0" d="M168.4,191.6H50.5c-5,0-9,4-9,9s4,9,9,9h117.9c5,0,9-4,9-9S173.4,191.6,168.4,191.6z"/>
</g>
</svg>
