<?xml version="1.0" encoding="utf-8"?>
<!-- Generator: Adobe Illustrator 23.1.1, SVG Export Plug-In . SVG Version: 6.00 Build 0)  -->
<svg version="1.1" id="Layer_1" xmlns="http://www.w3.org/2000/svg" xmlns:xlink="http://www.w3.org/1999/xlink" x="0px" y="0px"
	 viewBox="0 0 230 288" style="enable-background:new 0 0 230 288;" xml:space="preserve">
<style type="text/css">
	.st0{fill:#FFFFFF;}
	.st1{fill:none;}
	.st2{fill:#010101;}
	.st3{fill-rule:evenodd;clip-rule:evenodd;fill:#010101;}
	.st4{fill:#020202;}
</style>
<g>
	<path d="M30.4,288c-6.6,0-12-5.4-12-12V13c0-6.6,5.4-12,12-12s12,5.4,12,12v263C42.4,282.6,37,288,30.4,288z"/>
</g>
<g>
	<path d="M114.6,288c-6.6,0-12-5.4-12-12V13c0-6.6,5.4-12,12-12s12,5.4,12,12v263C126.6,282.6,121.2,288,114.6,288z"/>
</g>
<g>
	<path d="M199.3,288c-6.6,0-12-5.4-12-12V13c0-6.6,5.4-12,12-12s12,5.4,12,12v263C211.3,282.6,205.9,288,199.3,288z"/>
</g>
<g>
	<circle cx="30.4" cy="84.1" r="29.2"/>
</g>
<g>
	<circle cx="114.6" cy="209" r="29.2"/>
</g>
<g>
	<circle cx="199.3" cy="145.5" r="29.2"/>
</g>
</svg>
