<?xml version="1.0" encoding="utf-8"?>
<!-- Generator: Adobe Illustrator 23.1.1, SVG Export Plug-In . SVG Version: 6.00 Build 0)  -->
<svg version="1.1" id="Layer_1" xmlns="http://www.w3.org/2000/svg" xmlns:xlink="http://www.w3.org/1999/xlink" x="0px" y="0px"
	 viewBox="0 0 270 288" style="enable-background:new 0 0 270 288;" xml:space="preserve">
<style type="text/css">
	.st0{fill:#FFFFFF;}
	.st1{fill:none;}
	.st2{fill:#010101;}
	.st3{fill-rule:evenodd;clip-rule:evenodd;fill:#010101;}
	.st4{fill:#020202;}
</style>
<g>
	<g>
		<g>
			<path d="M71.7,65.3l30.5,32.8c6.5,6.9,15.6,10.9,25.1,10.9h117.2v123.6H25.4V65.4c7.9,0,18,0,27.2,0
				C59.9,65.3,66.7,65.3,71.7,65.3 M75.4,41.3c-10.7,0-39.5,0.1-54.9,0.1c-20.3,0-19.2,18-19.1,18.9c0,0,0,0,0,0.1v174.2
				c0,22,22.2,22,22.2,22s206.1,0,225.7,0c20.5,0,19.3-19.3,19.3-19.3s0-107.1,0-130c0-14.5-4.8-22.3-19.9-22.3
				c-29,0-121.2,0-121.2,0c-2.9,0-5.6-1.2-7.6-3.3l-33.5-36C83.6,42.9,79.6,41.3,75.4,41.3L75.4,41.3z"/>
		</g>
	</g>
</g>
</svg>
