<svg xmlns="http://www.w3.org/2000/svg" xmlns:xlink="http://www.w3.org/1999/xlink" id="Layer_1" x="0" y="0" enable-background="new 0 0 247 288" version="1.1" viewBox="0 0 247 288" xml:space="preserve"><style type="text/css"/><g><path d="M233.2,262.9h-31.5V62.4c0-12.4-10.1-22.5-22.5-22.5h-16.6v-27c0-6-4.8-10.8-10.8-10.8H95.4c-6,0-10.8,4.8-10.8,10.8v27 H67.2c-12.4,0-22.5,10.1-22.5,22.5v200.5H13.2c-6.6,0-12,5.4-12,12s5.4,12,12,12h220c6.6,0,12-5.4,12-12S239.8,262.9,233.2,262.9z M101.6,34.1h18v-18c0-3.3,2.7-6,6-6s6,2.7,6,6v18h18c3.3,0,6,2.7,6,6s-2.7,6-6,6h-18v18c0,3.3-2.7,6-6,6s-6-2.7-6-6v-18h-18 c-3.3,0-6-2.7-6-6S98.3,34.1,101.6,34.1z M68.7,67.5c0-2,1.6-3.6,3.6-3.6h12.3v5.4c0,6,4.8,10.8,10.8,10.8h56.4 c6,0,10.8-4.8,10.8-10.8v-5.4h11.5c2,0,3.6,1.6,3.6,3.6v195.4h-39.9v-33.9h-30.7v33.9H68.7V67.5z"/><rect width="27" height="23" x="87.5" y="94.9"/><rect width="27" height="23" x="129.5" y="94.9"/><rect width="27" height="23" x="87.5" y="138.9"/><rect width="27" height="23" x="129.5" y="138.9"/><rect width="27" height="23" x="87.5" y="182.9"/><rect width="27" height="23" x="129.5" y="182.9"/></g></svg>