<?xml version="1.0" encoding="utf-8"?>
<!-- Generator: Adobe Illustrator 23.1.1, SVG Export Plug-In . SVG Version: 6.00 Build 0)  -->
<svg version="1.1" id="Layer_1" xmlns="http://www.w3.org/2000/svg" xmlns:xlink="http://www.w3.org/1999/xlink" x="0px" y="0px"
	 viewBox="0 0 247 288" style="enable-background:new 0 0 247 288;" xml:space="preserve">
<style type="text/css">
	.st0{fill:none;stroke:#FFFFFF;stroke-width:2;stroke-miterlimit:10;}
	.st1{fill:none;}
	.st2{fill:#010101;}
	.st3{fill-rule:evenodd;clip-rule:evenodd;fill:#010101;}
	.st4{fill:none;stroke:#000000;stroke-width:24;stroke-linecap:round;stroke-miterlimit:10;}
	.st5{fill:none;stroke:#000000;stroke-width:24;stroke-miterlimit:10;}
	.st6{fill:#020202;}
	.st7{fill:none;stroke:#000000;stroke-width:18;stroke-miterlimit:10;}
	.st8{fill:none;stroke:#000000;stroke-width:24;stroke-linecap:round;stroke-linejoin:round;stroke-miterlimit:10;}
	.st9{fill:none;stroke:#000000;stroke-width:24;stroke-linecap:round;stroke-linejoin:round;}
	.st10{fill:none;stroke:#000000;stroke-width:24;stroke-linejoin:round;}
</style>
<g>
	<path d="M233.2,262.9h-31.5V62.4c0-12.4-10.1-22.5-22.5-22.5h-16.6v-27c0-6-4.8-10.8-10.8-10.8H95.4c-6,0-10.8,4.8-10.8,10.8v27
		H67.2c-12.4,0-22.5,10.1-22.5,22.5v200.5H13.2c-6.6,0-12,5.4-12,12s5.4,12,12,12h220c6.6,0,12-5.4,12-12S239.8,262.9,233.2,262.9z
		 M101.6,34.1h18v-18c0-3.3,2.7-6,6-6s6,2.7,6,6v18h18c3.3,0,6,2.7,6,6s-2.7,6-6,6h-18v18c0,3.3-2.7,6-6,6s-6-2.7-6-6v-18h-18
		c-3.3,0-6-2.7-6-6S98.3,34.1,101.6,34.1z M68.7,67.5c0-2,1.6-3.6,3.6-3.6h12.3v5.4c0,6,4.8,10.8,10.8,10.8h56.4
		c6,0,10.8-4.8,10.8-10.8v-5.4h11.5c2,0,3.6,1.6,3.6,3.6v195.4h-39.9v-33.9h-30.7v33.9H68.7V67.5z"/>
	<rect x="87.5" y="94.9" width="27" height="23"/>
	<rect x="129.5" y="94.9" width="27" height="23"/>
	<rect x="87.5" y="138.9" width="27" height="23"/>
	<rect x="129.5" y="138.9" width="27" height="23"/>
	<rect x="87.5" y="182.9" width="27" height="23"/>
	<rect x="129.5" y="182.9" width="27" height="23"/>
</g>
</svg>
