<?xml version="1.0" encoding="utf-8"?>
<!-- Generator: Adobe Illustrator 23.1.1, SVG Export Plug-In . SVG Version: 6.00 Build 0)  -->
<svg version="1.1" id="Layer_1" xmlns="http://www.w3.org/2000/svg" xmlns:xlink="http://www.w3.org/1999/xlink" x="0px" y="0px"
	 viewBox="0 0 321 288" style="enable-background:new 0 0 321 288;" xml:space="preserve">
<style type="text/css">
	.st0{fill:none;stroke:#FFFFFF;stroke-width:2;stroke-miterlimit:10;}
	.st1{fill:none;}
	.st2{fill:#010101;}
	.st3{fill-rule:evenodd;clip-rule:evenodd;fill:#010101;}
	.st4{fill:none;stroke:#000000;stroke-width:24;stroke-linecap:round;stroke-miterlimit:10;}
	.st5{fill:none;stroke:#000000;stroke-width:24;stroke-miterlimit:10;}
	.st6{fill:#020202;}
	.st7{fill:none;stroke:#000000;stroke-width:18;stroke-miterlimit:10;}
	.st8{fill:none;stroke:#000000;stroke-width:24;stroke-linecap:round;stroke-linejoin:round;stroke-miterlimit:10;}
	.st9{fill:none;stroke:#000000;stroke-width:24;stroke-linecap:round;stroke-linejoin:round;}
	.st10{fill:none;stroke:#000000;stroke-width:24;stroke-linejoin:round;}
</style>
<path d="M156.3,84.6L53.7,169.1v91.2c0,4.9,4,8.9,8.9,8.9l62.4-0.2c4.9,0,8.9-4,8.9-8.9v-53.3c0-4.9,4-8.9,8.9-8.9h35.6
	c4.9,0,8.9,4,8.9,8.9v53.2c0,4.9,4,8.9,8.9,8.9c0,0,0,0,0,0l62.3,0.2c4.9,0,8.9-4,8.9-8.9V169L164.8,84.6
	C162.3,82.6,158.7,82.6,156.3,84.6L156.3,84.6z M318.3,142l-46.5-38.3V26.6c0-3.7-3-6.7-6.7-6.7H234c-3.7,0-6.7,3-6.7,6.7V67
	l-49.8-41c-9.9-8.1-24.1-8.1-33.9,0L2.7,142c-2.8,2.3-3.2,6.6-0.9,9.4c0,0,0,0,0,0L16,168.7c2.3,2.8,6.6,3.3,9.4,0.9c0,0,0,0,0,0
	L156.3,61.8c2.5-2,6-2,8.5,0l130.9,107.8c2.8,2.4,7.1,2,9.4-0.9c0,0,0,0,0,0l14.2-17.2C321.6,148.6,321.2,144.4,318.3,142
	C318.3,142,318.3,142,318.3,142L318.3,142z"/>
</svg>
