<svg xmlns="http://www.w3.org/2000/svg" xmlns:xlink="http://www.w3.org/1999/xlink" id="Layer_1" x="0" y="0" enable-background="new 0 0 288 288" version="1.1" viewBox="0 0 288 288" xml:space="preserve"><style type="text/css"/><g><g><path d="M143.4,25c31.8-0.1,61.8,12.1,84.3,34.5c22.6,22.4,35.1,52.2,35.3,83.9c0.1,31.8-12.1,61.8-34.5,84.3 c-22.4,22.6-52.2,35.1-83.9,35.3c-31.8,0.1-61.8-12.1-84.3-34.5c-22.6-22.4-35.1-52.2-35.3-83.9c-0.1-31.8,12.1-61.8,34.5-84.3 C81.8,37.6,111.6,25.1,143.4,25 M143.3,0C63.8,0.4-0.4,65.2,0,144.7S65.2,288.4,144.7,288c79.5-0.4,143.7-65.2,143.3-144.7 C287.6,63.7,222.8-0.4,143.3,0L143.3,0z"/></g></g><g><g><g><path d="M113.8,120c50.7-17.7,37.5-13.4,48.2-15.5c-11,104.3-12,102.9-8.7,105.1c5.8,4.9,13.9-14,16.9-20.8 c1.6,0.6,3.1,1.2,4.6,1.8c-5.9,16.1-15.4,34.8-32,39.1c-12.7,3.1-21.2-3.6-22.5-12.7c-0.8-5.3-0.1-10.6,0.5-15.8 c6.9-63.7,7.3-64.2,6.7-70.4c-0.1-3.2-2.8-5.9-5.9-6.4c-2.9-0.6-5.8,0.5-8.7,0.9C113.3,123.5,113.6,121.8,113.8,120z"/></g></g><g><g><circle cx="149.4" cy="74.4" r="16.9"/></g></g></g></svg>