<?xml version="1.0" encoding="utf-8"?>
<!-- Generator: Adobe Illustrator 23.1.1, SVG Export Plug-In . SVG Version: 6.00 Build 0)  -->
<svg version="1.1" id="Layer_1" xmlns="http://www.w3.org/2000/svg" xmlns:xlink="http://www.w3.org/1999/xlink" x="0px" y="0px"
	 viewBox="0 0 288 288" style="enable-background:new 0 0 288 288;" xml:space="preserve">
<style type="text/css">
	.st0{fill:#FFFFFF;}
	.st1{fill:none;}
	.st2{fill:#010101;}
	.st3{fill-rule:evenodd;clip-rule:evenodd;fill:#010101;}
	.st4{fill:#020202;}
	.st5{fill:none;stroke:#394553;stroke-width:2.5;stroke-miterlimit:10;}
	.st6{fill:none;stroke:#394553;stroke-width:2.5;stroke-linecap:round;stroke-miterlimit:10;}
	.st7{fill:none;stroke:#394553;stroke-width:2.5;stroke-linejoin:round;stroke-miterlimit:10;}
	.st8{fill:none;stroke:#000000;stroke-width:18;stroke-linecap:round;stroke-linejoin:round;stroke-miterlimit:10;}
	.st9{fill:none;stroke:#000000;stroke-width:24;stroke-linejoin:round;}
	.st10{fill:none;stroke:#000000;stroke-width:24;stroke-linecap:round;stroke-linejoin:round;}
	.st11{fill:none;stroke:#484751;stroke-width:2.6322;stroke-linecap:square;stroke-miterlimit:10;}
	
		.st12{fill-rule:evenodd;clip-rule:evenodd;fill:none;stroke:#000000;stroke-width:24;stroke-linecap:round;stroke-linejoin:round;stroke-miterlimit:10;}
	.st13{fill-rule:evenodd;clip-rule:evenodd;fill:none;stroke:#000000;stroke-width:18;stroke-miterlimit:10;}
	
		.st14{fill-rule:evenodd;clip-rule:evenodd;fill:none;stroke:#000000;stroke-width:18;stroke-linecap:round;stroke-linejoin:round;stroke-miterlimit:10;}
	
		.st15{fill-rule:evenodd;clip-rule:evenodd;fill:none;stroke:#000000;stroke-width:12;stroke-linecap:round;stroke-linejoin:round;stroke-miterlimit:10;}
	.st16{fill:none;stroke:#000000;stroke-width:30;stroke-linecap:round;stroke-miterlimit:10;}
</style>
<g>
	<g>
		<g>
			<path d="M144,25c31.8-0.1,61.8,12.1,84.3,34.5c22.6,22.4,35.1,52.2,35.3,83.9c0.1,31.8-12.1,61.8-34.5,84.3
				c-22.4,22.6-52.2,35.1-83.9,35.3c-31.8,0.1-61.8-12.1-84.3-34.5c-22.6-22.4-35.1-52.2-35.3-83.9C25.4,112.8,37.6,82.8,60,60.3
				C82.3,37.6,112.2,25.1,144,25 M143.8,0C64.3,0.4,0.1,65.2,0.5,144.7S65.7,288.4,145.2,288c79.5-0.4,143.7-65.2,143.3-144.7
				C288.1,63.7,223.3-0.4,143.8,0L143.8,0z"/>
		</g>
	</g>
</g>
<g>
	<g>
		<circle cx="144.5" cy="71.5" r="18.5"/>
	</g>
</g>
<g>
	<path d="M144.5,238.9c-8.3,0-15-6.7-15-15V122.4c0-8.3,6.7-15,15-15s15,6.7,15,15v101.5C159.5,232.2,152.8,238.9,144.5,238.9z"/>
</g>
</svg>
