<?xml version="1.0" encoding="utf-8"?>
<!-- Generator: Adobe Illustrator 23.1.1, SVG Export Plug-In . SVG Version: 6.00 Build 0)  -->
<svg version="1.1" id="Layer_1" xmlns="http://www.w3.org/2000/svg" xmlns:xlink="http://www.w3.org/1999/xlink" x="0px" y="0px"
	 viewBox="0 0 288 288" style="enable-background:new 0 0 288 288;" xml:space="preserve">
<style type="text/css">
	.st0{fill:#FFFFFF;}
	.st1{fill:none;}
	.st2{fill:#010101;}
	.st3{fill-rule:evenodd;clip-rule:evenodd;fill:#010101;}
	.st4{fill:#020202;}
</style>
<g>
	<g>
		<path d="M143.3,0C63.8,0.4-0.4,65.2,0,144.7S65.2,288.4,144.7,288c79.5-0.4,143.7-65.2,143.3-144.7C287.6,63.7,222.8-0.4,143.3,0
			L143.3,0z"/>
	</g>
</g>
<g>
	<g>
		<g>
			<path class="st0" d="M113.8,120c50.7-17.7,37.5-13.4,48.2-15.5c-11,104.3-12,102.9-8.7,105.1c5.8,4.9,13.9-14,16.9-20.8
				c1.6,0.6,3.1,1.2,4.6,1.8c-5.9,16.1-15.4,34.8-32,39.1c-12.7,3.1-21.2-3.6-22.5-12.7c-0.8-5.3-0.1-10.6,0.5-15.8
				c6.9-63.7,7.3-64.2,6.7-70.4c-0.1-3.2-2.8-5.9-5.9-6.4c-2.9-0.6-5.8,0.5-8.7,0.9C113.3,123.5,113.6,121.8,113.8,120z"/>
		</g>
	</g>
	<g>
		<g>
			<circle class="st0" cx="149.4" cy="74.4" r="16.9"/>
		</g>
	</g>
</g>
</svg>
