<?xml version="1.0" encoding="utf-8"?>
<!-- Generator: Adobe Illustrator 23.1.1, SVG Export Plug-In . SVG Version: 6.00 Build 0)  -->
<svg version="1.1" id="Layer_1" xmlns="http://www.w3.org/2000/svg" xmlns:xlink="http://www.w3.org/1999/xlink" x="0px" y="0px"
	 viewBox="0 0 347.5 288" style="enable-background:new 0 0 347.5 288;" xml:space="preserve">
<style type="text/css">
	.st0{fill:#FFFFFF;}
	.st1{fill:none;}
	.st2{fill:#010101;}
	.st3{fill-rule:evenodd;clip-rule:evenodd;fill:#010101;}
	.st4{fill:#020202;}
	.st5{fill:none;stroke:#000000;stroke-width:24;stroke-linecap:round;stroke-miterlimit:10;}
	.st6{fill:none;stroke:#000000;stroke-width:24;stroke-linecap:round;stroke-linejoin:round;stroke-miterlimit:10;}
	.st7{fill:none;stroke:#000000;stroke-width:24;stroke-linecap:square;stroke-miterlimit:10;}
	.st8{stroke:#000000;stroke-width:24;stroke-linecap:round;stroke-linejoin:round;stroke-miterlimit:10;}
	.st9{fill:none;stroke:#FFFFFF;stroke-width:24;stroke-linecap:square;stroke-miterlimit:10;}
	.st10{fill:none;stroke:#FFFFFF;stroke-width:18;stroke-linecap:square;stroke-linejoin:round;stroke-miterlimit:10;}
	.st11{fill:none;stroke:#000000;stroke-width:24;stroke-miterlimit:10;}
	.st12{fill:none;stroke:#394553;stroke-width:2.5;stroke-miterlimit:10;}
	.st13{fill:none;stroke:#394553;stroke-width:2.5;stroke-linecap:round;stroke-miterlimit:10;}
	.st14{fill:none;stroke:#394553;stroke-width:2.5;stroke-linejoin:round;stroke-miterlimit:10;}
	.st15{fill:none;stroke:#000000;stroke-width:18;stroke-linecap:round;stroke-linejoin:round;stroke-miterlimit:10;}
</style>
<g>
	<path d="M320.2,29.2H27.9c-14.7,0-26.7,12-26.7,26.7v179.1c0,14.7,12,26.7,26.7,26.7h292.3c14.7,0,26.7-12,26.7-26.7V55.8
		C346.9,41.1,334.9,29.2,320.2,29.2z M322.9,234.9c0,1.5-1.2,2.7-2.7,2.7H27.9c-1.5,0-2.7-1.2-2.7-2.7V55.8c0-1.5,1.2-2.7,2.7-2.7
		h292.3c1.5,0,2.7,1.2,2.7,2.7V234.9z"/>
	<path d="M52.2,111h18.2c2.9,0,5.3-2.4,5.3-5.3V87.5c0-2.9-2.4-5.3-5.3-5.3H52.2c-2.9,0-5.3,2.4-5.3,5.3v18.2
		C46.9,108.6,49.3,111,52.2,111z"/>
	<path d="M109.4,111h18.2c2.9,0,5.3-2.4,5.3-5.3V87.5c0-2.9-2.4-5.3-5.3-5.3h-18.2c-2.9,0-5.3,2.4-5.3,5.3v18.2
		C104.1,108.6,106.4,111,109.4,111z"/>
	<path d="M166.5,111h18.2c2.9,0,5.3-2.4,5.3-5.3V87.5c0-2.9-2.4-5.3-5.3-5.3h-18.2c-2.9,0-5.3,2.4-5.3,5.3v18.2
		C161.2,108.6,163.6,111,166.5,111z"/>
	<path d="M223.6,111h18.2c2.9,0,5.3-2.4,5.3-5.3V87.5c0-2.9-2.4-5.3-5.3-5.3h-18.2c-2.9,0-5.3,2.4-5.3,5.3v18.2
		C218.4,108.6,220.7,111,223.6,111z"/>
	<path d="M299,82.2h-18.2c-2.9,0-5.3,2.4-5.3,5.3v18.2c0,2.9,2.4,5.3,5.3,5.3H299c2.9,0,5.3-2.4,5.3-5.3V87.5
		C304.3,84.5,301.9,82.2,299,82.2z"/>
	<path d="M99.1,130.9H80.8c-2.9,0-5.3,2.4-5.3,5.3v18.2c0,2.9,2.4,5.3,5.3,5.3h18.2c2.9,0,5.3-2.4,5.3-5.3v-18.2
		C104.4,133.3,102,130.9,99.1,130.9z"/>
	<path d="M132.7,154.4c0,2.9,2.4,5.3,5.3,5.3h18.2c2.9,0,5.3-2.4,5.3-5.3v-18.2c0-2.9-2.4-5.3-5.3-5.3H138c-2.9,0-5.3,2.4-5.3,5.3
		V154.4z"/>
	<path d="M189.8,154.4c0,2.9,2.4,5.3,5.3,5.3h18.2c2.9,0,5.3-2.4,5.3-5.3v-18.2c0-2.9-2.4-5.3-5.3-5.3h-18.2c-2.9,0-5.3,2.4-5.3,5.3
		V154.4z"/>
	<path d="M275.8,136.2c0-2.9-2.4-5.3-5.3-5.3h-18.2c-2.9,0-5.3,2.4-5.3,5.3v18.2c0,2.9,2.4,5.3,5.3,5.3h18.2c2.9,0,5.3-2.4,5.3-5.3
		V136.2z"/>
	<path d="M69.9,179.6H51.7c-2.9,0-5.3,2.4-5.3,5.3v18.2c0,2.9,2.4,5.3,5.3,5.3h18.2c2.9,0,5.3-2.4,5.3-5.3v-18.2
		C75.2,182,72.8,179.6,69.9,179.6z"/>
	<path d="M298.5,179.6h-18.2c-2.9,0-5.3,2.4-5.3,5.3v18.2c0,2.9,2.4,5.3,5.3,5.3h18.2c2.9,0,5.3-2.4,5.3-5.3v-18.2
		C303.7,182,301.4,179.6,298.5,179.6z"/>
	<path d="M240.3,182.5H110.8c-3.5,0-6.3,2.8-6.3,6.3v10.8c0,3.5,2.8,6.3,6.3,6.3h129.5c3.5,0,6.3-2.8,6.3-6.3v-10.8
		C246.5,185.3,243.7,182.5,240.3,182.5z"/>
</g>
</svg>
