<?xml version="1.0" encoding="utf-8"?>
<!-- Generator: Adobe Illustrator 23.1.1, SVG Export Plug-In . SVG Version: 6.00 Build 0)  -->
<svg version="1.1" id="Layer_1" xmlns="http://www.w3.org/2000/svg" xmlns:xlink="http://www.w3.org/1999/xlink" x="0px" y="0px"
	 viewBox="0 0 230.5 288" style="enable-background:new 0 0 230.5 288;" xml:space="preserve">
<style type="text/css">
	.st0{fill:#FFFFFF;}
	.st1{fill:none;}
	.st2{fill:#010101;}
	.st3{fill-rule:evenodd;clip-rule:evenodd;fill:#010101;}
	.st4{fill:#020202;}
	.st5{fill:none;stroke:#394553;stroke-width:2.5;stroke-miterlimit:10;}
	.st6{fill:none;stroke:#394553;stroke-width:2.5;stroke-linecap:round;stroke-miterlimit:10;}
	.st7{fill:none;stroke:#394553;stroke-width:2.5;stroke-linejoin:round;stroke-miterlimit:10;}
	.st8{fill:none;stroke:#000000;stroke-width:18;stroke-linecap:round;stroke-linejoin:round;stroke-miterlimit:10;}
	.st9{fill:none;stroke:#000000;stroke-width:24;stroke-linejoin:round;}
	.st10{fill:none;stroke:#000000;stroke-width:24;stroke-linecap:round;stroke-linejoin:round;}
	.st11{fill:none;stroke:#484751;stroke-width:2.6322;stroke-linecap:square;stroke-miterlimit:10;}
	
		.st12{fill-rule:evenodd;clip-rule:evenodd;fill:none;stroke:#000000;stroke-width:24;stroke-linecap:round;stroke-linejoin:round;stroke-miterlimit:10;}
	.st13{fill-rule:evenodd;clip-rule:evenodd;fill:none;stroke:#000000;stroke-width:18;stroke-miterlimit:10;}
	
		.st14{fill-rule:evenodd;clip-rule:evenodd;fill:none;stroke:#000000;stroke-width:18;stroke-linecap:round;stroke-linejoin:round;stroke-miterlimit:10;}
	
		.st15{fill-rule:evenodd;clip-rule:evenodd;fill:none;stroke:#000000;stroke-width:12;stroke-linecap:round;stroke-linejoin:round;stroke-miterlimit:10;}
	.st16{fill:none;stroke:#000000;stroke-width:30;stroke-linecap:round;stroke-miterlimit:10;}
	.st17{fill:#1A1A1A;}
</style>
<g>
	<path d="M216.4,237.2H30.6c-4,0-7.2-3.2-7.2-7.2l0-180.2c0-6.6-5.2-12.3-11.8-12.4c-6.7-0.1-12.2,5.3-12.2,12v201
		c0,6,4.8,10.8,10.8,10.8h206.6c6.7,0,12.1-5.5,12-12.2C228.7,242.4,223,237.2,216.4,237.2z"/>
	<path d="M66.5,173.8c2.2,3.2,5.8,5.2,9.7,5.3c3.9,0.1,7.6-1.7,9.9-4.8l45.8-61.5l33.9,51.6l-11.7,7.5c-2.7,1.8-4.3,4.8-4.1,8
		c0.1,1.6,0.6,3.2,1.4,4.5c0.8,1.3,2,2.4,3.4,3.1l43.1,18.9c2.9,1.5,6.3,1.3,9.1-0.4c2.7-1.8,4.3-4.8,4.1-8l0.6-47
		c-0.2-3.2-2-6.1-4.9-7.6c-2.8-1.4-6.3-1.3-9,0.5l-11.7,7.5l-43.4-66.1c-2.1-3.3-5.8-5.3-9.7-5.4c-3.9-0.1-7.6,1.7-10,4.8
		l-45.8,61.6l-16.8-25.2c-3.7-5.5-11.1-7-16.6-3.3c-5.5,3.7-7,11.1-3.3,16.6L66.5,173.8z"/>
</g>
</svg>
