<?xml version="1.0" encoding="utf-8"?>
<!-- Generator: Adobe Illustrator 23.1.1, SVG Export Plug-In . SVG Version: 6.00 Build 0)  -->
<svg version="1.1" id="Layer_1" xmlns="http://www.w3.org/2000/svg" xmlns:xlink="http://www.w3.org/1999/xlink" x="0px" y="0px"
	 viewBox="0 0 256 288" style="enable-background:new 0 0 256 288;" xml:space="preserve">
<style type="text/css">
	.st0{fill:none;stroke:#FFFFFF;stroke-width:2;stroke-miterlimit:10;}
	.st1{fill:none;}
	.st2{fill:#010101;}
	.st3{fill-rule:evenodd;clip-rule:evenodd;fill:#010101;}
	.st4{fill:none;stroke:#000000;stroke-width:24;stroke-linecap:round;stroke-miterlimit:10;}
	.st5{fill:none;stroke:#000000;stroke-width:24;stroke-miterlimit:10;}
	.st6{fill:#020202;}
	.st7{fill:none;stroke:#000000;stroke-width:18;stroke-miterlimit:10;}
	.st8{fill:none;stroke:#000000;stroke-width:24;stroke-linecap:round;stroke-linejoin:round;stroke-miterlimit:10;}
	.st9{fill:none;stroke:#000000;stroke-width:24;stroke-linecap:round;stroke-linejoin:round;}
	.st10{fill:none;stroke:#000000;stroke-width:24;stroke-linejoin:round;}
</style>
<path class="st2" d="M236.2,20.2H19.9c-9.9,0-18,8.2-18,18.2v215.9c0,10,8.1,18.2,18,18.2h216.3c9.9,0,18-8.2,18-18.2v-216
	C254.2,28.3,246.1,20.2,236.2,20.2z M78.2,236.4H40.8V116h37.4V236.4L78.2,236.4z M59.5,99.5c-12,0-21.7-9.7-21.7-21.7
	c0-11.9,9.7-21.7,21.7-21.7c11.9,0,21.7,9.7,21.7,21.7C81.2,89.9,71.5,99.5,59.5,99.5z M218.3,236.4h-37.4v-58.6
	c0-14-0.3-31.9-19.4-31.9c-19.5,0-22.5,15.2-22.5,30.9v59.6h-37.4V116h35.9v16.4h0.5c5-9.5,17.2-19.4,35.4-19.4
	c37.8,0,44.9,24.9,44.9,57.4V236.4z"/>
</svg>
