<?xml version="1.0" encoding="utf-8"?>
<!-- Generator: Adobe Illustrator 23.1.1, SVG Export Plug-In . SVG Version: 6.00 Build 0)  -->
<svg version="1.1" id="Layer_1" xmlns="http://www.w3.org/2000/svg" xmlns:xlink="http://www.w3.org/1999/xlink" x="0px" y="0px"
	 viewBox="0 0 345.6 288" style="enable-background:new 0 0 345.6 288;" xml:space="preserve">
<style type="text/css">
	.st0{fill:#FFFFFF;}
	.st1{fill:none;}
	.st2{fill:#010101;}
	.st3{fill-rule:evenodd;clip-rule:evenodd;fill:#010101;}
	.st4{fill:#020202;}
	.st5{fill:none;stroke:#000000;stroke-width:24;stroke-linecap:round;stroke-miterlimit:10;}
	.st6{fill:none;stroke:#000000;stroke-width:24;stroke-linecap:round;stroke-linejoin:round;stroke-miterlimit:10;}
	.st7{fill:none;stroke:#000000;stroke-width:24;stroke-linecap:square;stroke-miterlimit:10;}
	.st8{stroke:#000000;stroke-width:24;stroke-linecap:round;stroke-linejoin:round;stroke-miterlimit:10;}
	.st9{fill:none;stroke:#FFFFFF;stroke-width:24;stroke-linecap:square;stroke-miterlimit:10;}
	.st10{fill:none;stroke:#FFFFFF;stroke-width:18;stroke-linecap:square;stroke-linejoin:round;stroke-miterlimit:10;}
	.st11{fill:none;stroke:#000000;stroke-width:24;stroke-miterlimit:10;}
	.st12{fill:none;stroke:#394553;stroke-width:2.5;stroke-miterlimit:10;}
	.st13{fill:none;stroke:#394553;stroke-width:2.5;stroke-linecap:round;stroke-miterlimit:10;}
	.st14{fill:none;stroke:#394553;stroke-width:2.5;stroke-linejoin:round;stroke-miterlimit:10;}
	.st15{fill:none;stroke:#000000;stroke-width:18;stroke-linecap:round;stroke-linejoin:round;stroke-miterlimit:10;}
</style>
<g>
	<path d="M95.4,60.4c0,6.6,5.4,12,12,12h225.8c6.6,0,12-5.4,12-12s-5.4-12-12-12H107.4C100.8,48.4,95.4,53.8,95.4,60.4z"/>
	<path d="M333.2,138.3H107.4c-6.6,0-12,5.4-12,12s5.4,12,12,12h225.8c6.6,0,12-5.4,12-12S339.8,138.3,333.2,138.3z"/>
	<path d="M333.2,228.2H107.4c-6.6,0-12,5.4-12,12s5.4,12,12,12h225.8c6.6,0,12-5.4,12-12S339.8,228.2,333.2,228.2z"/>
	<circle cx="49.1" cy="240.5" r="22.4"/>
	<path d="M10.4,61l20.8,18.4c2.3,2,5.1,3,8,3c3.2,0,6.3-1.2,8.6-3.7l49.8-51.7c4.6-4.8,4.5-12.4-0.3-17s-12.4-4.5-17,0.3L38.5,53.8
		L26.3,43c-5-4.4-12.5-3.9-16.9,1C5,49,5.5,56.6,10.4,61z"/>
	<path d="M39.2,167c3.2,0,6.3-1.2,8.6-3.7l49.8-51.7c4.6-4.8,4.5-12.4-0.3-17S85,90.3,80.4,95l-41.8,43.4l-12.2-10.8
		c-5-4.4-12.5-3.9-16.9,1c-4.4,5-3.9,12.5,1,16.9L31.2,164C33.5,166,36.3,167,39.2,167z"/>
</g>
</svg>
