<svg xmlns="http://www.w3.org/2000/svg" xmlns:xlink="http://www.w3.org/1999/xlink" id="Layer_1" x="0" y="0" enable-background="new 0 0 523 288" version="1.1" viewBox="0 0 523 288" xml:space="preserve"><style type="text/css"/><g><path d="M211,47.7v86.5c0,25-0.2,40.9-0.7,47.6c-0.4,6.8-1.5,10.9-3.2,12.5c-1.7,1.6-5.9,2.5-12.6,2.8l-8.5,0.3v12 c21.1-0.7,37.9-1,50.2-1c12.2,0,26.1,0.3,41.7,1v-12c-12.2-1-19-1.9-20.2-2.7c-1.3-0.8-2.2-1.9-2.9-3.3c-1-2.5-1.7-13.2-2-32.1 s-0.5-36.8-0.5-53.8c0-33.7,0.3-56.6,1-68.6c0.5-7.4,1.5-11.8,3.2-13.2c1.7-1.4,8.8-2.5,21.4-3.3v-12c-11.3,0.5-23.1,0.7-35.3,0.7 c-10.3,0-21.3-0.2-32.8-0.7c-13.1,30.8-36,78.9-68.8,144.2C110,89,92.5,53,88.6,44.5c-5.6-11.9-11-24-16.2-36.1 c-12,0.3-24.5,0.4-37.5,0.4c-11.2,0-22.6-0.1-34.2-0.4v12c12.1,0.8,19,1.6,20.5,2.4c1.6,0.8,2.6,1.8,3.2,3 c1.1,2.5,1.8,9.3,1.9,20.6c0.1,18.6,0.2,35.2,0.2,49.8c0,27.5-0.3,53-1,76.6c-0.3,11.5-1.3,18.3-3.1,20.3c-1.7,2-6.1,3.2-13.1,3.6 l-8.6,0.6v12c11.4-0.7,24.4-1,38.9-0.9c9.8,0,19.6,0.3,29.4,1v-12c-12.4-0.5-19.6-1.8-21.5-3.7c-1.9-1.9-3-7-3.3-15.2 c-0.5-20.3-0.7-57.4-0.7-111.2V47.8l50,101.9c12.2,25.1,21.9,45.9,29.1,62.3h9.5c5.3-12.5,12.7-28.5,22.1-48.2 C177.2,115.9,196.2,77.2,211,47.7z"/><path d="M153.1,230.4h-6.4c-1.4,0-2.5,1.1-2.5,2.5v2.9c0,1.4,1.1,2.5,2.5,2.5h6.4c1.4,0,2.5-1.1,2.5-2.5v-2.9 C155.6,231.5,154.5,230.4,153.1,230.4z"/><path d="M166.1,230.4h-6.4c-1.4,0-2.5,1.1-2.5,2.5v2.9c0,1.4,1.1,2.5,2.5,2.5h6.4c1.4,0,2.5-1.1,2.5-2.5v-2.9 C168.6,231.5,167.5,230.4,166.1,230.4z"/><path d="M179.6,230.4h-6.4c-1.4,0-2.5,1.1-2.5,2.5v2.9c0,1.4,1.1,2.5,2.5,2.5h6.4c1.4,0,2.5-1.1,2.5-2.5v-2.9 C182.1,231.5,181,230.4,179.6,230.4z"/><path d="M192.9,230.4h-6.4c-1.4,0-2.5,1.1-2.5,2.5v2.9c0,1.4,1.1,2.5,2.5,2.5h6.5c1.3,0,2.5-1.1,2.4-2.5v-2.9 C195.4,231.5,194.3,230.4,192.9,230.4z"/><path d="M445,230.4h-6.4c-1.4,0-2.5,1.1-2.5,2.5v2.9c0,1.4,1.1,2.5,2.5,2.5h6.4c1.3,0,2.5-1.1,2.5-2.5v-2.9 C447.5,231.5,446.4,230.4,445,230.4z"/><path d="M431.5,230.4h-6.4c-1.4,0-2.5,1.1-2.5,2.5v2.9c0,1.4,1.1,2.5,2.5,2.5h6.4c1.4,0,2.5-1.1,2.5-2.5v-2.9 C434,231.5,432.9,230.4,431.5,230.4z"/><path d="M458.4,230.4H452c-1.4,0-2.5,1.1-2.5,2.5v2.9c0,1.4,1.1,2.5,2.5,2.5h6.4c1.4,0,2.5-1.1,2.5-2.5v-2.9 C460.9,231.5,459.8,230.4,458.4,230.4z"/><path d="M471.8,230.4h-6.4c-1.4,0-2.5,1.1-2.5,2.5v2.9c0,1.4,1.1,2.5,2.5,2.5h6.4c1.4,0,2.5-1.1,2.5-2.5v-2.9 C474.3,231.5,473.2,230.4,471.8,230.4z"/><path d="M417.9,230.5l-68.7-0.1l-8.5-30.5c-0.3-1.1-1.3-1.8-2.4-1.8s-2.1,0.8-2.4,1.9l-6.6,26.7L318.7,161 c-0.2-1.2-1.3-2.1-2.5-2.1c-1.2,0-2.3,1-2.4,2.2l-7.4,71.6l-7.6-40.4c-0.3-1.1-1.3-2-2.5-2s-2.3,0.8-2.5,2l-7.3,38.1h-86.6 c-1.4,0-2.5,1.1-2.5,2.5v2.9c0,0.7,0.2,1.4,0.7,1.8s1.1,0.7,1.8,0.7h91.3c1.2,0,2.3-0.8,2.5-2l2.7-14.3l2.7,13.7l5.3,45.4 c0.2,1.3,1.2,2.2,2.5,2.2c1.3,0,2.4-1,2.4-2.1l8.1-78.3l8.3,51.7c0.2,1.2,1.2,2.1,2.4,2.1c1.1,0,2.2-0.7,2.5-1.9l8-32.7l4,14.5 c0.3,1,1.3,1.8,2.4,1.8h72.9c1.4,0,2.5-1.1,2.5-2.5V233C420.4,231.6,419.3,230.5,417.9,230.5z"/><path d="M487,189.2c-8.9,2.2-18.5,3.2-28.7,3.2c-26.3,0-47.1-7.8-62.2-23.5c-16.3-16.9-24.5-39-24.5-66.3c0-25.2,6.8-44.9,20.4-59 s31.9-21.2,55-21.2c9.7,0,18.6,1.2,26.6,3.4c8,2.2,14.4,5.1,19.1,8.7c4.7,3.6,7.3,6.1,7.9,7.6c0.5,1.5,1.1,9.8,1.7,24.9h12.1 c0.7-12.4,1.7-22.7,3-31c0.7-4.8,1.9-9.7,3.7-14.9l-1-2.2c-12-4.5-24.1-7.8-36.3-10c-12.2-2.2-24.5-3.3-36.9-3.3 C409.5,5.6,380.2,15,359,34c-21.2,19-31.8,43.3-31.8,73c0,20.7,4.7,38.9,14.1,54.9c9.4,15.9,22.8,28.3,40.2,37.1 c17.5,8.8,38.8,13.2,64,13.2c13.4,0,25.4-1.3,35.7-3.7c10.4-2.4,21.1-6.6,32.3-12.4c1.9-5,4.1-9.8,6.6-14.6l-3.6-3.3 C505.7,183.5,495.9,187.2,487,189.2z"/></g></svg>