<?xml version="1.0" encoding="utf-8"?>
<!-- Generator: Adobe Illustrator 23.1.1, SVG Export Plug-In . SVG Version: 6.00 Build 0)  -->
<svg version="1.1" id="Layer_1" xmlns="http://www.w3.org/2000/svg" xmlns:xlink="http://www.w3.org/1999/xlink" x="0px" y="0px"
	 viewBox="0 0 252.2 288" style="enable-background:new 0 0 252.2 288;" xml:space="preserve">
<style type="text/css">
	.st0{fill:#FFFFFF;}
	.st1{fill:none;}
	.st2{fill:#010101;}
	.st3{fill-rule:evenodd;clip-rule:evenodd;fill:#010101;}
	.st4{fill:#020202;}
	.st5{fill:none;stroke:#000000;stroke-width:24;stroke-linecap:round;stroke-miterlimit:10;}
	.st6{fill:none;stroke:#000000;stroke-width:24;stroke-linecap:round;stroke-linejoin:round;stroke-miterlimit:10;}
	.st7{fill:none;stroke:#000000;stroke-width:24;stroke-linecap:square;stroke-miterlimit:10;}
	.st8{stroke:#000000;stroke-width:24;stroke-linecap:round;stroke-linejoin:round;stroke-miterlimit:10;}
	.st9{fill:none;stroke:#FFFFFF;stroke-width:24;stroke-linecap:square;stroke-miterlimit:10;}
	.st10{fill:none;stroke:#FFFFFF;stroke-width:18;stroke-linecap:square;stroke-linejoin:round;stroke-miterlimit:10;}
	.st11{fill:none;stroke:#000000;stroke-width:24;stroke-miterlimit:10;}
	.st12{fill:none;stroke:#394553;stroke-width:2.5;stroke-miterlimit:10;}
	.st13{fill:none;stroke:#394553;stroke-width:2.5;stroke-linecap:round;stroke-miterlimit:10;}
	.st14{fill:none;stroke:#394553;stroke-width:2.5;stroke-linejoin:round;stroke-miterlimit:10;}
	.st15{fill:none;stroke:#000000;stroke-width:18;stroke-linecap:round;stroke-linejoin:round;stroke-miterlimit:10;}
</style>
<g>
	<path d="M11.6,67h228.5c6.6,0,12-5.4,12-12s-5.4-12-12-12H11.6c-6.6,0-12,5.4-12,12S5,67,11.6,67z"/>
	<path d="M240.1,132.9H11.6c-6.6,0-12,5.4-12,12s5.4,12,12,12h228.5c6.6,0,12-5.4,12-12S246.7,132.9,240.1,132.9z"/>
	<path d="M240.1,222.8H11.6c-6.6,0-12,5.4-12,12s5.4,12,12,12h228.5c6.6,0,12-5.4,12-12S246.7,222.8,240.1,222.8z"/>
</g>
</svg>
