<?xml version="1.0" encoding="utf-8"?>
<!-- Generator: Adobe Illustrator 23.1.1, SVG Export Plug-In . SVG Version: 6.00 Build 0)  -->
<svg version="1.1" id="Layer_1" xmlns="http://www.w3.org/2000/svg" xmlns:xlink="http://www.w3.org/1999/xlink" x="0px" y="0px"
	 viewBox="0 0 232.4 288" style="enable-background:new 0 0 232.4 288;" xml:space="preserve">
<style type="text/css">
	.st0{fill:#FFFFFF;}
	.st1{fill:none;}
	.st2{fill:#010101;}
	.st3{fill-rule:evenodd;clip-rule:evenodd;fill:#010101;}
	.st4{fill:#020202;}
</style>
<g>
	<path d="M74.7,277.5c-2.5,0-4.9-0.1-7.4-0.4c-29.8-3.1-50.7-20.4-62.4-51.4c-14.8-39.4,18.8-75.4,20.3-76.9
		c4.3-4.6,106.6-112.2,119-124.7c9.1-9.1,26.4-17.3,44.5-15.2c10.3,1.2,24.7,6.1,35.3,23c17.4,27.8,1.4,55.8-9.6,66.8l-96.1,98.4
		c-4.6,4.7-12.2,4.8-17,0.2c-4.7-4.6-4.8-12.2-0.2-17l96.3-98.5c0,0,5-5.1,8-12.7c3.6-8.8,3-16.9-1.8-24.5
		c-4.5-7.2-10.2-11.1-17.6-11.9c-9.6-1.1-19.9,3.5-24.8,8.4C149,53.3,43.7,164.2,42.6,165.3c-0.2,0.2-24.7,26.7-15.2,51.9
		c8.4,22.4,21.9,33.8,42.4,36c18.9,2,41-7.6,62.4-27c24.3-22.1,65.8-64.7,66.2-65.1c4.6-4.8,12.2-4.9,17-0.2
		c4.7,4.6,4.8,12.2,0.2,17c-1.7,1.8-42.4,43.5-67.3,66.1C124.4,265.8,98.5,277.5,74.7,277.5z"/>
</g>
</svg>
