<?xml version="1.0" encoding="utf-8"?>
<!-- Generator: Adobe Illustrator 23.1.1, SVG Export Plug-In . SVG Version: 6.00 Build 0)  -->
<svg version="1.1" id="Layer_1" xmlns="http://www.w3.org/2000/svg" xmlns:xlink="http://www.w3.org/1999/xlink" x="0px" y="0px"
	 viewBox="0 0 369 288" style="enable-background:new 0 0 369 288;" xml:space="preserve">
<style type="text/css">
	.st0{fill:#FFFFFF;}
	.st1{fill:none;}
	.st2{fill:#010101;}
	.st3{fill-rule:evenodd;clip-rule:evenodd;fill:#010101;}
	.st4{fill:#020202;}
</style>
<g>
	<path d="M5.3,104.9l56.5,55.5c1.7,1.7,4.2,2,6.4,1L353.6,14c1.1-0.6,0.5-2.3-0.7-2L8,95.4C3.7,96.5,2.2,101.8,5.3,104.9z"/>
</g>
<g>
	<path d="M90.1,176.1L367.4,18c1-0.6,2,0.6,1.4,1.5L206.7,280.3c-2.8,4.6-9.1,5.4-13,1.7L89.1,184.9
		C86.4,182.3,86.9,177.9,90.1,176.1z"/>
</g>
<g>
	<path d="M59,189.6l4.1,73.7c0.2,3.1,3.5,5,6.2,3.4l39.5-22.1c2.9-1.6,3.4-5.5,1.1-7.8l-47.7-48.7C61,186.9,58.9,187.9,59,189.6z"/>
</g>
</svg>
