<?xml version="1.0" encoding="utf-8"?>
<!-- Generator: Adobe Illustrator 23.1.1, SVG Export Plug-In . SVG Version: 6.00 Build 0)  -->
<svg version="1.1" id="Layer_1" xmlns="http://www.w3.org/2000/svg" xmlns:xlink="http://www.w3.org/1999/xlink" x="0px" y="0px"
	 viewBox="0 0 265.4 288" style="enable-background:new 0 0 265.4 288;" xml:space="preserve">
<style type="text/css">
	.st0{fill:#FFFFFF;}
	.st1{fill:none;}
	.st2{fill:#010101;}
	.st3{fill-rule:evenodd;clip-rule:evenodd;fill:#010101;}
	.st4{fill:#020202;}
</style>
<g>
	<g>
		<path d="M4.4,78.5c-0.1-3.9,1.6-7.1,4.3-10c14-14.1,28.1-28.1,42.3-42.3C57.2,20,65,20,71.4,26.1c5.9,5.8,11.7,11.7,17.6,17.5
			c1.6,1.5,1.7,2.4,0.1,4c-19.5,19.5-39,39-58.5,58.5c-1.3,1.3-2.3,1.7-3.8,0.1C20.6,100,14.3,93.8,8.1,87.5
			C5.6,85.4,4.2,82.3,4.4,78.5z"/>
	</g>
	<g>
		<path d="M260.7,269.5c-8.5-26-17.1-51.8-25.6-77.8c-0.5-1.7-1.3-3.1-2.7-4.4c-42.1-42.1-84.2-84.2-126.4-126.5
			c-2-2-3.2-2.4-5.5-0.1c-19,19.1-37.9,38.1-57.1,57.1c-2.4,2.4-2.2,3.6,0.1,5.8c42.1,42,84.1,84,126.1,126.1c1.3,1.3,3,2.3,4.7,2.8
			c11.7,3.8,23.4,7.7,35.1,11.6c14,4.6,28.1,9.3,42.1,13.9c5.1,1.7,9.3-0.8,9.4-6.2C261.1,271.5,261,270.4,260.7,269.5z
			 M183.9,240.3c13.2-13.2,25.7-25.7,38.9-38.9c6.3,19.1,12.6,38.1,19.1,58C222.1,252.8,203.1,246.6,183.9,240.3z"/>
	</g>
</g>
</svg>
