<?xml version="1.0" encoding="utf-8"?>
<!-- Generator: Adobe Illustrator 23.1.1, SVG Export Plug-In . SVG Version: 6.00 Build 0)  -->
<svg version="1.1" id="Layer_1" xmlns="http://www.w3.org/2000/svg" xmlns:xlink="http://www.w3.org/1999/xlink" x="0px" y="0px"
	 viewBox="0 0 292.4 288" style="enable-background:new 0 0 292.4 288;" xml:space="preserve">
<style type="text/css">
	.st0{fill:#FFFFFF;}
	.st1{fill:none;}
	.st2{fill:#010101;}
	.st3{fill-rule:evenodd;clip-rule:evenodd;fill:#010101;}
	.st4{fill:#020202;}
	.st5{fill:none;stroke:#000000;stroke-width:24;stroke-linecap:round;stroke-miterlimit:10;}
	.st6{fill:none;stroke:#000000;stroke-width:24;stroke-linecap:round;stroke-linejoin:round;stroke-miterlimit:10;}
	.st7{fill:none;stroke:#000000;stroke-width:24;stroke-linecap:square;stroke-miterlimit:10;}
	.st8{stroke:#000000;stroke-width:24;stroke-linecap:round;stroke-linejoin:round;stroke-miterlimit:10;}
	.st9{fill:none;stroke:#FFFFFF;stroke-width:24;stroke-linecap:square;stroke-miterlimit:10;}
	.st10{fill:none;stroke:#FFFFFF;stroke-width:18;stroke-linecap:square;stroke-linejoin:round;stroke-miterlimit:10;}
	.st11{fill:none;stroke:#000000;stroke-width:24;stroke-miterlimit:10;}
	.st12{fill:none;stroke:#394553;stroke-width:2.5;stroke-miterlimit:10;}
	.st13{fill:none;stroke:#394553;stroke-width:2.5;stroke-linecap:round;stroke-miterlimit:10;}
	.st14{fill:none;stroke:#394553;stroke-width:2.5;stroke-linejoin:round;stroke-miterlimit:10;}
	.st15{fill:none;stroke:#000000;stroke-width:18;stroke-linecap:round;stroke-linejoin:round;stroke-miterlimit:10;}
</style>
<path d="M290.4,74.6c-1.4-9.1-6.2-18-13.3-25.2l-35.9-35.9C225-2.5,202.2-4.9,189.3,8L43,154.3c-1.3,1.3-2.3,2.8-2.9,4.6L1,271.9
	c-1.5,4.3-0.4,9,2.7,12.2c2.3,2.4,5.4,3.7,8.7,3.7c1.2,0,2.3-0.2,3.5-0.5l112.9-34.1c1.9-0.6,3.6-1.6,5-3l148.9-148.9
	C289.2,94.7,292,85,290.4,74.6z M131.6,218.3L111.4,198l75-75c4.7-4.7,4.7-12.3,0-17c-4.7-4.7-12.3-4.7-17,0l-75,75l-22.1-22.1
	l94-94l59.4,59.4L131.6,218.3z M58.5,179.1l53.9,53.9l-60.8,18.4l-13.4-13.7L58.5,179.1z M265.6,84.3l-22.9,22.9l-59.4-59.4
	L206.2,25c2.5-2.5,10.9-1.5,18,5.5L260,66.4c3.6,3.6,6,7.9,6.6,12C267.1,81,266.7,83.3,265.6,84.3z"/>
</svg>
