<?xml version="1.0" encoding="utf-8"?>
<!-- Generator: Adobe Illustrator 23.1.1, SVG Export Plug-In . SVG Version: 6.00 Build 0)  -->
<svg version="1.1" id="Layer_1" xmlns="http://www.w3.org/2000/svg" xmlns:xlink="http://www.w3.org/1999/xlink" x="0px" y="0px"
	 viewBox="0 0 288 288" style="enable-background:new 0 0 288 288;" xml:space="preserve">
<style type="text/css">
	.st0{fill:#FFFFFF;}
	.st1{fill:none;}
	.st2{fill:#010101;}
	.st3{fill-rule:evenodd;clip-rule:evenodd;fill:#010101;}
	.st4{fill:#020202;}
</style>
<g>
	<path d="M144,0C64.5,0,0,64.5,0,144s64.5,144,144,144s144-64.5,144-144S223.5,0,144,0z M234,156.5h-77.5V234
		c0,6.9-5.6,12.5-12.5,12.5s-12.5-5.6-12.5-12.5v-77.5H54c-6.9,0-12.5-5.6-12.5-12.5s5.6-12.5,12.5-12.5h77.5V54
		c0-6.9,5.6-12.5,12.5-12.5s12.5,5.6,12.5,12.5v77.5H234c6.9,0,12.5,5.6,12.5,12.5S240.9,156.5,234,156.5z"/>
</g>
</svg>
