<?xml version="1.0" encoding="utf-8"?>
<!-- Generator: Adobe Illustrator 23.1.1, SVG Export Plug-In . SVG Version: 6.00 Build 0)  -->
<svg version="1.1" id="Layer_1" xmlns="http://www.w3.org/2000/svg" xmlns:xlink="http://www.w3.org/1999/xlink" x="0px" y="0px"
	 viewBox="0 0 219.4 288" style="enable-background:new 0 0 219.4 288;" xml:space="preserve">
<style type="text/css">
	.st0{fill:#FFFFFF;}
	.st1{fill:none;}
	.st2{fill:#010101;}
	.st3{fill-rule:evenodd;clip-rule:evenodd;fill:#010101;}
	.st4{fill:#020202;}
	.st5{fill:none;stroke:#000000;stroke-width:24;stroke-linecap:round;stroke-miterlimit:10;}
	.st6{fill:none;stroke:#000000;stroke-width:24;stroke-linecap:round;stroke-linejoin:round;stroke-miterlimit:10;}
	.st7{fill:none;stroke:#000000;stroke-width:24;stroke-linecap:square;stroke-miterlimit:10;}
	.st8{stroke:#000000;stroke-width:24;stroke-linecap:round;stroke-linejoin:round;stroke-miterlimit:10;}
	.st9{fill:none;stroke:#FFFFFF;stroke-width:24;stroke-linecap:square;stroke-miterlimit:10;}
	.st10{fill:none;stroke:#FFFFFF;stroke-width:18;stroke-linecap:square;stroke-linejoin:round;stroke-miterlimit:10;}
	.st11{fill:none;stroke:#000000;stroke-width:24;stroke-miterlimit:10;}
	.st12{fill:none;stroke:#394553;stroke-width:2.5;stroke-miterlimit:10;}
	.st13{fill:none;stroke:#394553;stroke-width:2.5;stroke-linecap:round;stroke-miterlimit:10;}
	.st14{fill:none;stroke:#394553;stroke-width:2.5;stroke-linejoin:round;stroke-miterlimit:10;}
	.st15{fill:none;stroke:#000000;stroke-width:18;stroke-linecap:round;stroke-linejoin:round;stroke-miterlimit:10;}
</style>
<path d="M109.7,0.9c54.9,0,109.1,40.9,109.1,100.7c0,58.8-26,100.1-55,137c-10,12.8-20.7,23.9-31.5,33.3c-3.8,3.3-7.3,6.2-10.5,8.7
	c-1.1,0.9-2.2,1.6-3.1,2.3c-0.6,0.4-1,0.7-1.3,0.9c-4.8,3.3-10.8,3.3-15.6,0c-0.3-0.2-0.7-0.5-1.3-0.9c-0.9-0.7-1.9-1.4-3.1-2.3
	c-3.2-2.5-6.7-5.3-10.5-8.7c-10.7-9.4-21.4-20.6-31.5-33.3c-29-36.9-55-78.2-55-137C0.5,41.9,54.8,0.9,109.7,0.9L109.7,0.9z
	 M109.7,60.7c-25.1,0-45.4,20.3-45.4,45.4c0,25.1,20.3,45.4,45.4,45.4s45.4-20.3,45.4-45.4C155.1,81.1,134.7,60.7,109.7,60.7
	L109.7,60.7z M109.7,60.7"/>
</svg>
