<?xml version="1.0" encoding="utf-8"?>
<!-- Generator: Adobe Illustrator 23.1.1, SVG Export Plug-In . SVG Version: 6.00 Build 0)  -->
<svg version="1.1" id="Layer_1" xmlns="http://www.w3.org/2000/svg" xmlns:xlink="http://www.w3.org/1999/xlink" x="0px" y="0px"
	 viewBox="0 0 262.6 288" style="enable-background:new 0 0 262.6 288;" xml:space="preserve">
<style type="text/css">
	.st0{fill:#FFFFFF;}
	.st1{fill:none;}
	.st2{fill:#010101;}
	.st3{fill-rule:evenodd;clip-rule:evenodd;fill:#010101;}
	.st4{fill:#020202;}
	.st5{fill:none;stroke:#394553;stroke-width:2.5;stroke-miterlimit:10;}
	.st6{fill:none;stroke:#394553;stroke-width:2.5;stroke-linecap:round;stroke-miterlimit:10;}
	.st7{fill:none;stroke:#394553;stroke-width:2.5;stroke-linejoin:round;stroke-miterlimit:10;}
	.st8{fill:none;stroke:#000000;stroke-width:18;stroke-linecap:round;stroke-linejoin:round;stroke-miterlimit:10;}
	.st9{fill:none;stroke:#000000;stroke-width:24;stroke-linejoin:round;}
	.st10{fill:none;stroke:#000000;stroke-width:24;stroke-linecap:round;stroke-linejoin:round;}
	.st11{fill:none;stroke:#484751;stroke-width:2.6322;stroke-linecap:square;stroke-miterlimit:10;}
	
		.st12{fill-rule:evenodd;clip-rule:evenodd;fill:none;stroke:#000000;stroke-width:24;stroke-linecap:round;stroke-linejoin:round;stroke-miterlimit:10;}
	.st13{fill-rule:evenodd;clip-rule:evenodd;fill:none;stroke:#000000;stroke-width:18;stroke-miterlimit:10;}
	
		.st14{fill-rule:evenodd;clip-rule:evenodd;fill:none;stroke:#000000;stroke-width:18;stroke-linecap:round;stroke-linejoin:round;stroke-miterlimit:10;}
	
		.st15{fill-rule:evenodd;clip-rule:evenodd;fill:none;stroke:#000000;stroke-width:12;stroke-linecap:round;stroke-linejoin:round;stroke-miterlimit:10;}
	.st16{fill:none;stroke:#000000;stroke-width:30;stroke-linecap:round;stroke-miterlimit:10;}
	.st17{fill:none;stroke:#FFFFFF;stroke-width:24;stroke-linecap:round;stroke-miterlimit:10;}
	.st18{fill:none;stroke:#1A1A1A;stroke-width:24;stroke-linecap:round;stroke-linejoin:round;stroke-miterlimit:22.9256;}
	.st19{fill:none;stroke:#1A1A1A;stroke-width:18;stroke-linecap:round;stroke-linejoin:round;stroke-miterlimit:22.9256;}
</style>
<g>
	<path d="M131.2,287.9C59.4,287.9,1,229.5,1,157.7c0-24.9,7-49.1,20.4-70c13-20.3,31.3-36.6,52.9-47.2c6-2.9,13.1-0.4,16,5.5
		c2.9,6,0.4,13.1-5.5,16C67.1,70.7,52.2,84,41.6,100.6c-10.9,17-16.6,36.8-16.6,57.1c0,58.6,47.7,106.2,106.2,106.2
		s106.2-47.7,106.2-106.2c0-20.3-5.7-40-16.6-57c-10.6-16.6-25.4-29.9-43-38.5c-6-2.9-8.4-10.1-5.5-16.1c2.9-6,10.1-8.4,16.1-5.5
		c21.6,10.6,39.8,26.9,52.7,47.2c13.3,20.9,20.3,45,20.3,69.9C261.4,229.5,203,287.9,131.2,287.9z"/>
</g>
<g>
	<path d="M131.2,181.6c-6.6,0-12-5.4-12-12V14.2c0-6.6,5.4-12,12-12c6.6,0,12,5.4,12,12v155.4C143.2,176.2,137.8,181.6,131.2,181.6z
		"/>
</g>
</svg>
