<?xml version="1.0" encoding="utf-8"?>
<!-- Generator: Adobe Illustrator 23.1.1, SVG Export Plug-In . SVG Version: 6.00 Build 0)  -->
<svg version="1.1" id="Layer_1" xmlns="http://www.w3.org/2000/svg" xmlns:xlink="http://www.w3.org/1999/xlink" x="0px" y="0px"
	 viewBox="0 0 288 288" style="enable-background:new 0 0 288 288;" xml:space="preserve">
<style type="text/css">
	.st0{fill:#FFFFFF;}
	.st1{fill:none;}
	.st2{fill:#010101;}
	.st3{fill-rule:evenodd;clip-rule:evenodd;fill:#010101;}
	.st4{fill:#020202;}
</style>
<g>
	<path d="M275.7,177.1c-6.6-2.4-13.8,1-16.2,7.6c-17,46.6-61.8,78-111.5,78c-65.4,0-118.7-53.2-118.7-118.7
		C29.3,78.6,82.5,25.3,148,25.3c30.3,0,59,11.6,80.7,31.8h-29.3c-7,0-12.7,5.7-12.7,12.7s5.7,12.7,12.7,12.7h57l0,0h0.1
		c7,0,12.7-5.7,12.7-12.7V12.7c0-7-5.7-12.7-12.7-12.7c-7,0-12.7,5.7-12.7,12.7v23.9C217.7,13.3,183.7,0,148,0C68.6,0,4,64.6,4,144
		s64.6,144,144,144c60.3,0,114.6-38,135.3-94.6C285.6,186.8,282.2,179.5,275.7,177.1z"/>
</g>
</svg>
