<?xml version="1.0" encoding="utf-8"?>
<!-- Generator: Adobe Illustrator 23.1.1, SVG Export Plug-In . SVG Version: 6.00 Build 0)  -->
<svg version="1.1" id="Layer_1" xmlns="http://www.w3.org/2000/svg" xmlns:xlink="http://www.w3.org/1999/xlink" x="0px" y="0px"
	 viewBox="0 0 246.1 288" style="enable-background:new 0 0 246.1 288;" xml:space="preserve">
<style type="text/css">
	.st0{fill:#FFFFFF;}
	.st1{fill:none;}
	.st2{fill:#010101;}
	.st3{fill-rule:evenodd;clip-rule:evenodd;fill:#010101;}
	.st4{fill:#020202;}
	.st5{fill:none;stroke:#000000;stroke-width:24;stroke-linecap:round;stroke-miterlimit:10;}
	.st6{fill:none;stroke:#000000;stroke-width:24;stroke-linecap:round;stroke-linejoin:round;stroke-miterlimit:10;}
	.st7{fill:none;stroke:#000000;stroke-width:24;stroke-linecap:square;stroke-miterlimit:10;}
	.st8{stroke:#000000;stroke-width:24;stroke-linecap:round;stroke-linejoin:round;stroke-miterlimit:10;}
	.st9{fill:none;stroke:#FFFFFF;stroke-width:24;stroke-linecap:square;stroke-miterlimit:10;}
	.st10{fill:none;stroke:#FFFFFF;stroke-width:18;stroke-linecap:square;stroke-linejoin:round;stroke-miterlimit:10;}
	.st11{fill:none;stroke:#000000;stroke-width:24;stroke-miterlimit:10;}
	.st12{fill:none;stroke:#394553;stroke-width:2.5;stroke-miterlimit:10;}
	.st13{fill:none;stroke:#394553;stroke-width:2.5;stroke-linecap:round;stroke-miterlimit:10;}
	.st14{fill:none;stroke:#394553;stroke-width:2.5;stroke-linejoin:round;stroke-miterlimit:10;}
	.st15{fill:none;stroke:#000000;stroke-width:18;stroke-linecap:round;stroke-linejoin:round;stroke-miterlimit:10;}
</style>
<path d="M178.7,205.6l65.9-65.9c2-2,2-5.3,0-7.3l-7.2-7.2c-2-2-5.2-2-7.2,0l-66,65.9c0,0-0.1,0-0.1,0l-67.4-67.4c0,0,0-0.1,0-0.1
	h4.9c33.8,0,62-26.9,62.4-60.7c0.4-34.3-27.3-62.2-61.5-62.2H5.4C2.5,0.7,0.2,3,0.2,5.8v174.1c0,2.9,2.3,5.2,5.2,5.2h10.1
	c2.9,0,5.2-2.3,5.2-5.2v-56.3c0,0,0,0,0,0h46.9c0,0,0,0,0,0l81.9,81.9c0,0,0,0.1,0,0.1l-65.9,65.9c-2,2-2,5.3,0,7.3l7.2,7.2
	c2,2,5.2,2,7.2,0l66-65.9c0,0,0.1,0,0.1,0l65.9,65.9c2,2,5.3,2,7.3,0l7.2-7.2c2-2,2-5.2,0-7.2L178.7,205.6
	C178.7,205.6,178.7,205.6,178.7,205.6z M20.7,103.1V21.2c0,0,0,0,0,0h81.1c22.4,0,41.3,17.6,41.8,40c0.5,23-18.1,41.9-41,41.9
	L20.7,103.1C20.7,103.1,20.7,103.1,20.7,103.1z"/>
</svg>
