<?xml version="1.0" encoding="utf-8"?>
<!-- Generator: Adobe Illustrator 23.1.1, SVG Export Plug-In . SVG Version: 6.00 Build 0)  -->
<svg version="1.1" id="Layer_1" xmlns="http://www.w3.org/2000/svg" xmlns:xlink="http://www.w3.org/1999/xlink" x="0px" y="0px"
	 viewBox="0 0 244.7 288" style="enable-background:new 0 0 244.7 288;" xml:space="preserve">
<style type="text/css">
	.st0{fill:#FFFFFF;}
	.st1{fill:none;}
	.st2{fill:#010101;}
	.st3{fill-rule:evenodd;clip-rule:evenodd;fill:#010101;}
	.st4{fill:#020202;}
</style>
<g>
	<path d="M239.2,246.9l-60.6-60.6c13.6-16.9,21.7-38.4,21.7-61.8c0-54.6-44.4-99-99-99s-99,44.4-99,99s44.4,99,99,99
		c22.2,0,42.8-7.4,59.3-19.8l60.9,60.9c2.4,2.4,5.6,3.7,8.8,3.7s6.4-1.2,8.8-3.7C244.1,259.7,244.1,251.8,239.2,246.9z M27.4,124.6
		c0-40.8,33.2-74,74-74s74,33.2,74,74s-33.2,74-74,74C60.5,198.5,27.4,165.4,27.4,124.6z"/>
</g>
</svg>
