<?xml version="1.0" encoding="utf-8"?>
<!-- Generator: Adobe Illustrator 23.1.1, SVG Export Plug-In . SVG Version: 6.00 Build 0)  -->
<svg version="1.1" id="Layer_1" xmlns="http://www.w3.org/2000/svg" xmlns:xlink="http://www.w3.org/1999/xlink" x="0px" y="0px"
	 viewBox="0 0 244.7 288" style="enable-background:new 0 0 244.7 288;" xml:space="preserve">
<style type="text/css">
	.st0{fill:#FFFFFF;}
	.st1{fill:none;}
	.st2{fill:#010101;}
	.st3{fill-rule:evenodd;clip-rule:evenodd;fill:#010101;}
	.st4{fill:#020202;}
</style>
<g>
	<g>
		<path d="M122.8,24.4c39,0,79.5,16.9,97.6,25.4v95.3c0,59.8-61.7,99.5-90.7,114.9c-4.3,2.3-9.5,2.3-13.8,0
			c-29-15.3-90.7-55.1-90.7-114.9V49.8C43.3,41.2,83.8,24.4,122.8,24.4 M122.8,0.4C77.5,0.4,32.1,19.7,12,29.5
			C5.4,32.7,1.2,39.4,1.2,46.8v98.3c0,79.7,84,126.9,112.4,140.6c2.9,1.4,6.1,2.1,9.2,2.1s6.3-0.7,9.2-2.1
			c28.4-13.7,112.4-60.9,112.4-140.6V46.8c0-7.3-4.2-14-10.8-17.3C213.5,19.7,168.1,0.4,122.8,0.4L122.8,0.4z"/>
	</g>
</g>
</svg>
