<?xml version="1.0" encoding="utf-8"?>
<!-- Generator: Adobe Illustrator 23.1.1, SVG Export Plug-In . SVG Version: 6.00 Build 0)  -->
<svg version="1.1" id="Layer_1" xmlns="http://www.w3.org/2000/svg" xmlns:xlink="http://www.w3.org/1999/xlink" x="0px" y="0px"
	 viewBox="0 0 290.3 288" style="enable-background:new 0 0 290.3 288;" xml:space="preserve">
<style type="text/css">
	.st0{fill:#FFFFFF;}
	.st1{fill:none;}
	.st2{fill:#010101;}
	.st3{fill-rule:evenodd;clip-rule:evenodd;fill:#010101;}
	.st4{fill:#020202;}
	.st5{fill:none;stroke:#000000;stroke-width:24;stroke-linecap:round;stroke-miterlimit:10;}
	.st6{fill:none;stroke:#000000;stroke-width:24;stroke-linecap:round;stroke-linejoin:round;stroke-miterlimit:10;}
	.st7{fill:none;stroke:#000000;stroke-width:24;stroke-linecap:square;stroke-miterlimit:10;}
	.st8{stroke:#000000;stroke-width:24;stroke-linecap:round;stroke-linejoin:round;stroke-miterlimit:10;}
	.st9{fill:none;stroke:#FFFFFF;stroke-width:24;stroke-linecap:square;stroke-miterlimit:10;}
	.st10{fill:none;stroke:#FFFFFF;stroke-width:18;stroke-linecap:square;stroke-linejoin:round;stroke-miterlimit:10;}
	.st11{fill:none;stroke:#000000;stroke-width:24;stroke-miterlimit:10;}
	.st12{fill:none;stroke:#394553;stroke-width:2.5;stroke-miterlimit:10;}
	.st13{fill:none;stroke:#394553;stroke-width:2.5;stroke-linecap:round;stroke-miterlimit:10;}
	.st14{fill:none;stroke:#394553;stroke-width:2.5;stroke-linejoin:round;stroke-miterlimit:10;}
	.st15{fill:none;stroke:#000000;stroke-width:18;stroke-linecap:round;stroke-linejoin:round;stroke-miterlimit:10;}
</style>
<path d="M242.9,125.2c-25.9,0-46.9,21-46.9,46.9c0,19.9,12.4,36.9,29.9,43.7c-5.2,24.5-19,43.7-55.7,43.7
	c-19.4,0-33.6-5.3-43.5-16.3c-5.9-6.5-9.6-14.4-11.9-22.2c2.2-1.9,4.3-4.1,6-6.8c4.9-7.9,6.8-18.9,4.5-28.6
	c56.6-21.6,69.2-107.4,69.2-132.8c0-5.2-2.4-21.5-29.8-33.6c-3-10.7-12.8-18.5-24.4-18.5c-14,0-25.4,11.4-25.4,25.4
	c0,14,11.4,25.4,25.4,25.4c7,0,13.3-2.8,17.9-7.4c6.3,3.3,10.8,6.7,11.3,8.7c0,1.1-5.4,112.7-72.1,112.7
	C30.6,165.6,25.2,54,25.2,53.1c0.6-2.1,5.1-5.6,11.4-8.9c4.6,4.6,10.9,7.4,17.9,7.4c14,0,25.4-11.4,25.4-25.4
	c0-14-11.4-25.4-25.4-25.4C42.8,0.8,33,8.6,30,19.3C2.6,31.4,0.2,47.6,0.2,52.9c0,25.4,12.5,111.2,69.2,132.8
	c-2.3,9.7-0.4,20.8,4.5,28.6c3.4,5.4,8.2,9.2,13.3,11.4c3.2,12.2,8.9,25.2,18.7,36.1c15.3,17,36.9,25.7,64.3,25.7
	c58.3,0,77.3-37.3,83.5-69.6c20.7-4.9,36.1-23.4,36.1-45.6C289.8,146.2,268.8,125.2,242.9,125.2z M242.9,194.2
	c-12.2,0-22.1-9.9-22.1-22.1c0-12.2,9.9-22.1,22.1-22.1c12.2,0,22.1,9.9,22.1,22.1C265,184.4,255.1,194.2,242.9,194.2z"/>
</svg>
