<?xml version="1.0" encoding="utf-8"?>
<!-- Generator: Adobe Illustrator 23.1.1, SVG Export Plug-In . SVG Version: 6.00 Build 0)  -->
<svg version="1.1" id="Layer_1" xmlns="http://www.w3.org/2000/svg" xmlns:xlink="http://www.w3.org/1999/xlink" x="0px" y="0px"
	 viewBox="0 0 288 288" style="enable-background:new 0 0 288 288;" xml:space="preserve">
<style type="text/css">
	.st0{fill:#FFFFFF;}
	.st1{fill:none;}
	.st2{fill:#010101;}
	.st3{fill-rule:evenodd;clip-rule:evenodd;fill:#010101;}
	.st4{fill:#020202;}
</style>
<g>
	<g>
		<path d="M25.3,144C25.3,78.5,78.6,25.3,144,25.3c40.8,0,78.4,21,99.9,54.7h-37.1c-7,0-12.6,5.7-12.6,12.6c0,7,5.7,12.6,12.6,12.6
			h57.1c7,0,12.6-5.7,12.6-12.6v-2.4l0,0V35.6c0-7-5.7-12.6-12.6-12.6c-7,0-12.6,5.7-12.6,12.6v12.5c-26.9-30-65.7-48-107.3-48
			C64.6,0.1,0,64.7,0,144.1c0,7,5.7,12.6,12.6,12.6C19.7,156.6,25.3,150.9,25.3,144z"/>
	</g>
	<g>
		<path d="M275.4,131.3c-7,0-12.6,5.7-12.6,12.6c0,65.5-53.3,118.7-118.7,118.7c-40.8,0-78.4-21-100-54.7h37.1
			c7,0,12.6-5.7,12.6-12.6c0-7-5.7-12.6-12.6-12.6H24.1c-7,0-12.6,5.7-12.6,12.6v2.4l0,0v54.7c0,7,5.7,12.6,12.6,12.6
			s12.6-5.7,12.6-12.6v-12.5c26.9,30,65.7,48,107.3,48c79.4,0,144-64.6,144-144C288,137,282.4,131.3,275.4,131.3z"/>
	</g>
</g>
</svg>
