<?xml version="1.0" encoding="utf-8"?>
<!-- Generator: Adobe Illustrator 23.1.1, SVG Export Plug-In . SVG Version: 6.00 Build 0)  -->
<svg version="1.1" id="Layer_1" xmlns="http://www.w3.org/2000/svg" xmlns:xlink="http://www.w3.org/1999/xlink" x="0px" y="0px"
	 viewBox="0 0 288.7 288" style="enable-background:new 0 0 288.7 288;" xml:space="preserve">
<style type="text/css">
	.st0{fill:#FFFFFF;}
	.st1{fill:none;}
	.st2{fill:#010101;}
	.st3{fill-rule:evenodd;clip-rule:evenodd;fill:#010101;}
	.st4{fill:#020202;}
</style>
<g>
	<g>
		<path d="M127.7,288.3c-5.9,0-11.9-2.3-16.4-6.8L7.1,177.4c-9-9-9-23.8,0-32.8L143.1,8.5c4.4-4.4,10.2-6.8,16.3-6.8l104.5,0
			c12.6,0,22.9,10.3,22.9,22.9v104.5c0,6.2-2.4,12-6.8,16.3l-136.1,136C139.5,286,133.6,288.3,127.7,288.3z M32.1,168.4l88.2,88.2
			c4.1,4.1,10.8,4.1,14.9,0L259.7,132c2.1-2.1,3.2-4.9,3.2-7.8V36.5c0-5.9-4.8-10.8-10.8-10.8l-87.7,0c-2.9,0-5.7,1.2-7.8,3.2
			L32.1,153.5C27.9,157.6,27.9,164.3,32.1,168.4z"/>
	</g>
</g>
<g>
	<circle cx="216" cy="75.4" r="24.6"/>
</g>
</svg>
