<?xml version="1.0" encoding="utf-8"?>
<!-- Generator: Adobe Illustrator 23.1.1, SVG Export Plug-In . SVG Version: 6.00 Build 0)  -->
<svg version="1.1" id="Layer_1" xmlns="http://www.w3.org/2000/svg" xmlns:xlink="http://www.w3.org/1999/xlink" x="0px" y="0px"
	 viewBox="0 0 237 288" style="enable-background:new 0 0 237 288;" xml:space="preserve">
<style type="text/css">
	.st0{fill:#FFFFFF;}
	.st1{fill:none;}
	.st2{fill:#010101;}
	.st3{fill-rule:evenodd;clip-rule:evenodd;fill:#010101;}
	.st4{fill:#020202;}
	.st5{fill:none;stroke:#394553;stroke-width:2.5;stroke-miterlimit:10;}
	.st6{fill:none;stroke:#394553;stroke-width:2.5;stroke-linecap:round;stroke-miterlimit:10;}
	.st7{fill:none;stroke:#394553;stroke-width:2.5;stroke-linejoin:round;stroke-miterlimit:10;}
	.st8{fill:none;stroke:#000000;stroke-width:18;stroke-linecap:round;stroke-linejoin:round;stroke-miterlimit:10;}
	.st9{fill:none;stroke:#000000;stroke-width:24;stroke-linejoin:round;}
	.st10{fill:none;stroke:#000000;stroke-width:24;stroke-linecap:round;stroke-linejoin:round;}
	.st11{fill:none;stroke:#484751;stroke-width:2.6322;stroke-linecap:square;stroke-miterlimit:10;}
	
		.st12{fill-rule:evenodd;clip-rule:evenodd;fill:none;stroke:#000000;stroke-width:24;stroke-linecap:round;stroke-linejoin:round;stroke-miterlimit:10;}
	.st13{fill-rule:evenodd;clip-rule:evenodd;fill:none;stroke:#000000;stroke-width:18;stroke-miterlimit:10;}
	
		.st14{fill-rule:evenodd;clip-rule:evenodd;fill:none;stroke:#000000;stroke-width:18;stroke-linecap:round;stroke-linejoin:round;stroke-miterlimit:10;}
	
		.st15{fill-rule:evenodd;clip-rule:evenodd;fill:none;stroke:#000000;stroke-width:12;stroke-linecap:round;stroke-linejoin:round;stroke-miterlimit:10;}
	.st16{fill:none;stroke:#000000;stroke-width:30;stroke-linecap:round;stroke-miterlimit:10;}
</style>
<g>
	<path d="M226.1,82c-0.1,0.1-0.2,0.3-0.3,0.4c-2.8,2.8-7.4,2.6-10.4-0.3s-3.1-7.6-0.3-10.4c0.1-0.1,0.2-0.2,0.4-0.3l-6.7-6.7
		c-0.1,0.1-0.2,0.2-0.3,0.3c-2.8,2.8-7.4,2.6-10.4-0.3c-2.9-2.9-3.1-7.6-0.3-10.4c0.1-0.1,0.2-0.2,0.3-0.3l-6.7-6.6
		c-0.1,0.1-0.2,0.2-0.2,0.3c-2.8,2.8-7.4,2.6-10.4-0.3c-2.9-2.9-3.1-7.6-0.3-10.4c0.1-0.1,0.2-0.1,0.2-0.2l-10.8-10.7
		c-7.2,7.3-20.4,5.9-29.5-3.2L0.1,164.2c0.1,0.1,0.2,0.2,0.3,0.3c9.1,9,10.6,22.2,3.3,29.5l-0.1,0.1l9.9,9.8
		c2.8-2.6,7.3-2.4,10.2,0.5s3.1,7.4,0.5,10.2l6.7,6.6c2.8-2.6,7.3-2.4,10.1,0.5c2.9,2.9,3.1,7.3,0.5,10.1l6.7,6.6
		c2.8-2.5,7.2-2.3,10.1,0.6c2.8,2.8,3.1,7.2,0.6,10l8.4,8.3c7.2-7.2,20.3-5.8,29.4,3.1l140.1-141.1c0,0,0,0-0.1,0
		c-9.1-9-10.6-22.2-3.3-29.5c0.1-0.1,0.3-0.2,0.4-0.3L226.1,82z M209.2,105.4c0.1,4.4-1.4,8.5-4.4,11.5L93.3,229.1l0,0
		c-3,3-7.1,4.6-11.4,4.5c-4.4-0.1-8.6-1.9-11.8-5.1l-37.8-37.6c-6.6-6.6-7-17-0.8-23.3L143,55.4l0,0c6.2-6.2,16.6-5.9,23.2,0.7
		L204,93.7C207.2,96.8,209,101,209.2,105.4z"/>
	<path d="M149,61.4L149,61.4L37.5,173.7c-3.1,3.1-2.9,8.3,0.4,11.6l37.8,37.6c1.6,1.6,3.7,2.5,5.9,2.6s4.2-0.7,5.7-2.2l0,0
		l111.5-112.2c1.5-1.5,2.3-3.5,2.2-5.7s-1-4.3-2.6-5.9l-37.8-37.6C157.3,58.4,152.1,58.3,149,61.4z"/>
</g>
</svg>
