<?xml version="1.0" encoding="utf-8"?>
<!-- Generator: Adobe Illustrator 23.1.1, SVG Export Plug-In . SVG Version: 6.00 Build 0)  -->
<svg version="1.1" id="Layer_1" xmlns="http://www.w3.org/2000/svg" xmlns:xlink="http://www.w3.org/1999/xlink" x="0px" y="0px"
	 viewBox="0 0 156 288" style="enable-background:new 0 0 156 288;" xml:space="preserve">
<style type="text/css">
	.st0{fill:#FFFFFF;}
	.st1{fill:none;}
	.st2{fill:#010101;}
	.st3{fill-rule:evenodd;clip-rule:evenodd;fill:#010101;}
	.st4{fill:#020202;}
</style>
<g>
	<g>
		<path d="M151.2,198.8L96.4,144l54.8-54.8c4.9-4.9,4.9-12.8,0-17.7c-4.9-4.9-12.8-4.9-17.7,0l-54.8,54.8L24,71.5
			c-4.9-4.9-12.8-4.9-17.7,0s-4.9,12.8,0,17.7L61.1,144L6.3,198.8c-4.9,4.9-4.9,12.8,0,17.7c4.9,4.9,12.8,4.9,17.7,0l54.8-54.8
			l54.8,54.8c4.9,4.9,12.8,4.9,17.7,0S156.1,203.7,151.2,198.8z"/>
	</g>
</g>
</svg>
