<?xml version="1.0" encoding="utf-8"?>
<!-- Generator: Adobe Illustrator 23.1.1, SVG Export Plug-In . SVG Version: 6.00 Build 0)  -->
<svg version="1.1" id="Layer_1" xmlns="http://www.w3.org/2000/svg" xmlns:xlink="http://www.w3.org/1999/xlink" x="0px" y="0px"
	 viewBox="0 0 401.1 288" style="enable-background:new 0 0 401.1 288;" xml:space="preserve">
<style type="text/css">
	.st0{fill:#FFFFFF;}
	.st1{fill:none;}
	.st2{fill:#010101;}
	.st3{fill-rule:evenodd;clip-rule:evenodd;fill:#010101;}
	.st4{fill:#020202;}
	.st5{fill:none;stroke:#394553;stroke-width:2.5;stroke-miterlimit:10;}
	.st6{fill:none;stroke:#394553;stroke-width:2.5;stroke-linecap:round;stroke-miterlimit:10;}
	.st7{fill:none;stroke:#394553;stroke-width:2.5;stroke-linejoin:round;stroke-miterlimit:10;}
	.st8{fill:none;stroke:#000000;stroke-width:18;stroke-linecap:round;stroke-linejoin:round;stroke-miterlimit:10;}
	.st9{fill:none;stroke:#000000;stroke-width:24;stroke-linejoin:round;}
	.st10{fill:none;stroke:#000000;stroke-width:24;stroke-linecap:round;stroke-linejoin:round;}
	.st11{fill:none;stroke:#484751;stroke-width:2.6322;stroke-linecap:square;stroke-miterlimit:10;}
	
		.st12{fill-rule:evenodd;clip-rule:evenodd;fill:none;stroke:#000000;stroke-width:24;stroke-linecap:round;stroke-linejoin:round;stroke-miterlimit:10;}
	.st13{fill-rule:evenodd;clip-rule:evenodd;fill:none;stroke:#000000;stroke-width:18;stroke-miterlimit:10;}
	
		.st14{fill-rule:evenodd;clip-rule:evenodd;fill:none;stroke:#000000;stroke-width:18;stroke-linecap:round;stroke-linejoin:round;stroke-miterlimit:10;}
	
		.st15{fill-rule:evenodd;clip-rule:evenodd;fill:none;stroke:#000000;stroke-width:12;stroke-linecap:round;stroke-linejoin:round;stroke-miterlimit:10;}
	.st16{fill:none;stroke:#000000;stroke-width:30;stroke-linecap:round;stroke-miterlimit:10;}
</style>
<g>
	<circle cx="200.4" cy="90.3" r="52.7"/>
</g>
<g>
	<path d="M231.9,154.6c-9.5,4.6-20.2,7.2-31.5,7.2s-22-2.6-31.5-7.2c-31.9,12.6-54.4,53.2-54.4,89.5l0,0l0,0l0,0l0,0
		c24.1,5.7,54.1,8.8,86.5,8.8c31.9,0,61.3-3.3,85.2-8.8l0,0C286.3,207.7,263.7,167.1,231.9,154.6z"/>
</g>
<g>
	<circle cx="335.1" cy="113.4" r="40.1"/>
</g>
<g>
	<path d="M359.1,167.5c-7.2,3.5-15.4,5.5-23.9,5.5s-16.7-2-23.9-5.5c-8.5,3.4-16.2,8.5-22.5,14.9c11,14.3,17.7,41.7,17.9,61.1
		c9.3,0.8,19,1.2,29.1,1.2c24.3,0,46.7-2.5,64.9-6.7l0,0C400.5,210.3,383.3,177.1,359.1,167.5z"/>
</g>
<g>
	<circle cx="67.6" cy="112.1" r="40.1"/>
</g>
<g>
	<path d="M43.6,166.3c7.2,3.5,15.4,5.5,23.9,5.5s16.7-2,23.9-5.5c8.5,3.4,16.2,8.5,22.5,14.9c-11,14.3-17.7,41.7-17.9,61.1
		c-9.3,0.8-19,1.2-29.1,1.2c-24.3,0-46.7-2.5-64.9-6.7l0,0C2.2,209,19.4,175.9,43.6,166.3z"/>
</g>
</svg>
