<?xml version="1.0" encoding="utf-8"?>
<!-- Generator: Adobe Illustrator 23.1.1, SVG Export Plug-In . SVG Version: 6.00 Build 0)  -->
<svg version="1.1" id="Layer_1" xmlns="http://www.w3.org/2000/svg" xmlns:xlink="http://www.w3.org/1999/xlink" x="0px" y="0px"
	 viewBox="0 0 54.6 288" style="enable-background:new 0 0 54.6 288;" xml:space="preserve">
<style type="text/css">
	.st0{fill:#FFFFFF;}
	.st1{fill:none;}
	.st2{fill:#010101;}
	.st3{fill-rule:evenodd;clip-rule:evenodd;fill:#010101;}
	.st4{fill:#020202;}
</style>
<g>
	<path d="M27.2,117.9c14.9,0,27,12.1,27,27s-12.1,27-27,27s-27-12.1-27-27S12.3,117.9,27.2,117.9z M0.2,59.4c0,14.9,12.1,27,27,27
		s27-12.1,27-27s-12.1-27-27-27S0.2,44.4,0.2,59.4z M0.2,230.4c0,14.9,12.1,27,27,27s27-12.1,27-27s-12.1-27-27-27
		S0.2,215.5,0.2,230.4z"/>
</g>
</svg>
