<?xml version="1.0" encoding="utf-8"?>
<!-- Generator: Adobe Illustrator 23.1.1, SVG Export Plug-In . SVG Version: 6.00 Build 0)  -->
<svg version="1.1" id="Layer_1" xmlns="http://www.w3.org/2000/svg" xmlns:xlink="http://www.w3.org/1999/xlink" x="0px" y="0px"
	 viewBox="0 0 306 288" style="enable-background:new 0 0 306 288;" xml:space="preserve">
<style type="text/css">
	.st0{fill:none;stroke:#FFFFFF;stroke-width:2;stroke-miterlimit:10;}
	.st1{fill:none;}
	.st2{fill:#010101;}
	.st3{fill-rule:evenodd;clip-rule:evenodd;fill:#010101;}
	.st4{fill:none;stroke:#000000;stroke-width:24;stroke-linecap:round;stroke-miterlimit:10;}
	.st5{fill:none;stroke:#000000;stroke-width:24;stroke-miterlimit:10;}
	.st6{fill:#020202;}
	.st7{fill:none;stroke:#000000;stroke-width:18;stroke-miterlimit:10;}
	.st8{fill:none;stroke:#000000;stroke-width:24;stroke-linecap:round;stroke-linejoin:round;stroke-miterlimit:10;}
	.st9{fill:none;stroke:#000000;stroke-width:24;stroke-linecap:round;stroke-linejoin:round;}
	.st10{fill:none;stroke:#000000;stroke-width:24;stroke-linejoin:round;}
</style>
<path class="st2" d="M300.2,71.1c-3.5-13.3-13.9-23.7-27.1-27.3c-23.9-6.4-119.7-6.4-119.7-6.4s-95.8,0-119.7,6.4
	c-13.2,3.5-23.6,14-27.1,27.3c-6.4,24.1-6.4,74.3-6.4,74.3s0,50.2,6.4,74.3c3.5,13.3,13.9,23.3,27.1,26.8
	c23.9,6.4,119.7,6.4,119.7,6.4s95.8,0,119.7-6.4c13.2-3.5,23.6-13.6,27.1-26.8c6.4-24.1,6.4-74.3,6.4-74.3S306.6,95.1,300.2,71.1z
	 M122,190.9V99.8l80.1,45.6L122,190.9L122,190.9z"/>
</svg>
